<?xml version="1.0" encoding="UTF-8" standalone="no"?><!DOCTYPE svg PUBLIC "-//W3C//DTD SVG 1.1//EN" "http://www.w3.org/Graphics/SVG/1.1/DTD/svg11.dtd"><svg width="100%" height="100%" viewBox="0 0 150 150" version="1.1" xmlns="http://www.w3.org/2000/svg" xmlns:xlink="http://www.w3.org/1999/xlink" xml:space="preserve" style="fill-rule:evenodd;clip-rule:evenodd;stroke-linejoin:round;stroke-miterlimit:1.41421;"><path id="Codepen" d="M137.109,85.786l-16.125,-10.786l16.125,-10.786l0,21.572Zm-55.664,45.722l0,-30.061l27.947,-18.689l22.556,15.084l-50.503,33.666Zm-6.445,-41.26l-22.795,-15.248l22.795,-15.248l22.8,15.248l-22.8,15.248Zm-6.445,41.26l-50.503,-33.666l22.56,-15.084l27.943,18.689l0,30.061Zm-55.664,-67.294l16.129,10.786l-16.129,10.786l0,-21.572Zm55.664,-45.722l0,30.061l-27.943,18.694l-22.56,-15.089l50.503,-33.666Zm12.89,0l50.503,33.666l-22.556,15.089l-27.947,-18.694l0,-30.061Zm68.499,32.817c-0.014,-0.098 -0.038,-0.187 -0.052,-0.281c-0.033,-0.183 -0.065,-0.366 -0.112,-0.539c-0.028,-0.108 -0.071,-0.211 -0.103,-0.314c-0.052,-0.159 -0.104,-0.314 -0.165,-0.469c-0.042,-0.108 -0.093,-0.215 -0.145,-0.314c-0.065,-0.15 -0.136,-0.29 -0.22,-0.426c-0.056,-0.104 -0.122,-0.202 -0.183,-0.3c-0.084,-0.136 -0.173,-0.268 -0.272,-0.394c-0.07,-0.094 -0.145,-0.188 -0.22,-0.277c-0.103,-0.122 -0.211,-0.239 -0.324,-0.351c-0.084,-0.085 -0.164,-0.174 -0.253,-0.249c-0.122,-0.108 -0.243,-0.211 -0.365,-0.309c-0.099,-0.075 -0.193,-0.15 -0.291,-0.22c-0.037,-0.024 -0.07,-0.057 -0.108,-0.08l-68.554,-45.703c-2.166,-1.444 -4.983,-1.444 -7.154,0l-68.55,45.703c-0.037,0.023 -0.07,0.056 -0.107,0.08c-0.104,0.07 -0.197,0.145 -0.291,0.22c-0.127,0.098 -0.248,0.201 -0.366,0.309c-0.089,0.075 -0.173,0.164 -0.257,0.249c-0.113,0.112 -0.221,0.229 -0.319,0.351c-0.08,0.089 -0.155,0.183 -0.225,0.277c-0.094,0.126 -0.183,0.258 -0.267,0.394c-0.066,0.098 -0.127,0.196 -0.188,0.3c-0.08,0.136 -0.15,0.276 -0.22,0.426c-0.047,0.099 -0.099,0.206 -0.141,0.314c-0.065,0.155 -0.117,0.31 -0.169,0.469c-0.032,0.103 -0.07,0.206 -0.098,0.314c-0.047,0.173 -0.08,0.356 -0.113,0.539c-0.018,0.094 -0.042,0.183 -0.051,0.281c-0.038,0.272 -0.061,0.553 -0.061,0.839l0,45.704c0,0.281 0.023,0.562 0.061,0.843c0.009,0.089 0.033,0.183 0.051,0.277c0.033,0.183 0.066,0.361 0.113,0.539c0.028,0.108 0.066,0.211 0.098,0.314c0.052,0.155 0.104,0.314 0.169,0.473c0.042,0.104 0.094,0.207 0.141,0.31c0.07,0.145 0.14,0.286 0.22,0.431c0.061,0.098 0.122,0.197 0.188,0.295c0.084,0.136 0.173,0.263 0.267,0.389c0.07,0.099 0.145,0.193 0.225,0.282c0.098,0.117 0.206,0.239 0.319,0.347c0.084,0.089 0.168,0.173 0.257,0.253c0.118,0.107 0.239,0.211 0.366,0.309c0.094,0.075 0.187,0.15 0.291,0.22c0.037,0.024 0.07,0.057 0.107,0.08l68.55,45.703c1.083,0.722 2.33,1.083 3.577,1.083c1.247,0 2.494,-0.361 3.577,-1.083l68.554,-45.703c0.038,-0.023 0.071,-0.056 0.108,-0.08c0.098,-0.07 0.192,-0.145 0.291,-0.22c0.122,-0.098 0.243,-0.202 0.365,-0.309c0.089,-0.08 0.169,-0.164 0.253,-0.253c0.113,-0.108 0.221,-0.23 0.324,-0.347c0.075,-0.089 0.15,-0.183 0.22,-0.282c0.099,-0.126 0.188,-0.253 0.272,-0.389c0.061,-0.098 0.127,-0.197 0.183,-0.295c0.084,-0.145 0.155,-0.286 0.22,-0.431c0.052,-0.103 0.103,-0.206 0.145,-0.31c0.061,-0.159 0.113,-0.318 0.165,-0.473c0.032,-0.103 0.075,-0.206 0.103,-0.314c0.047,-0.178 0.079,-0.356 0.112,-0.539c0.014,-0.094 0.038,-0.188 0.052,-0.277c0.037,-0.281 0.056,-0.562 0.056,-0.843l0,-45.704c0,-0.286 -0.019,-0.567 -0.056,-0.839Z" style="fill:#fff;"/></svg>