<?xml version="1.0" encoding="UTF-8" standalone="no"?><!DOCTYPE svg PUBLIC "-//W3C//DTD SVG 1.1//EN" "http://www.w3.org/Graphics/SVG/1.1/DTD/svg11.dtd"><svg width="100%" height="100%" viewBox="0 0 150 100" version="1.1" xmlns="http://www.w3.org/2000/svg" xmlns:xlink="http://www.w3.org/1999/xlink" xml:space="preserve" style="fill-rule:evenodd;clip-rule:evenodd;stroke-linejoin:round;stroke-miterlimit:1.41421;"><g id="Envelope"><g><path d="M107.267,57.385c-1.101,-0.875 -1.782,-2.174 -1.877,-3.578c-0.094,-1.403 0.407,-2.782 1.38,-3.797c8.657,-9.026 29.804,-31.077 38.926,-40.589c0.706,-0.736 1.789,-0.97 2.737,-0.589c0.947,0.381 1.567,1.299 1.567,2.32c0,16.287 0,59.971 0,75.022c0,0.959 -0.549,1.834 -1.414,2.251c-0.864,0.417 -1.891,0.303 -2.642,-0.294c-8.814,-7.007 -29.649,-23.57 -38.677,-30.746Z" style="fill:#fff;"/><path d="M42.733,57.385c1.101,-0.875 1.782,-2.174 1.877,-3.578c0.094,-1.403 -0.407,-2.782 -1.38,-3.797c-8.657,-9.026 -29.804,-31.077 -38.926,-40.589c-0.706,-0.736 -1.789,-0.97 -2.737,-0.589c-0.947,0.381 -1.567,1.299 -1.567,2.32c0,16.287 0,59.971 0,75.022c0,0.959 0.549,1.834 1.414,2.251c0.864,0.417 1.891,0.303 2.642,-0.294c8.814,-7.007 29.649,-23.57 38.677,-30.746Z" style="fill:#fff;"/></g><path d="M71.356,78.393c0.945,1.005 2.264,1.576 3.644,1.576c1.38,0 2.699,-0.571 3.644,-1.576c4.327,-4.605 11.473,-12.211 15.574,-16.575c1.782,-1.896 4.722,-2.108 6.758,-0.487c8.891,7.078 31.922,25.415 42.606,33.922c0.832,0.662 1.154,1.777 0.803,2.78c-0.35,1.004 -1.297,1.676 -2.36,1.676c-25.091,0 -108.931,0 -134.039,0c-1.064,0 -2.01,-0.673 -2.361,-1.677c-0.35,-1.004 -0.027,-2.119 0.805,-2.781c10.699,-8.501 33.745,-26.813 42.637,-33.88c2.037,-1.618 4.974,-1.405 6.755,0.491c4.09,4.353 11.215,11.935 15.534,16.531Z" style="fill:#fff;"/><path d="M78.6,68.121c-0.942,0.978 -2.242,1.531 -3.6,1.531c-1.358,0 -2.658,-0.553 -3.6,-1.531c-11.779,-12.222 -49.124,-50.971 -61.571,-63.886c-0.696,-0.722 -0.893,-1.79 -0.501,-2.713c0.393,-0.923 1.298,-1.522 2.301,-1.522c22.65,0 104.092,0 126.742,0c1.003,0 1.908,0.599 2.301,1.522c0.392,0.923 0.195,1.991 -0.501,2.713c-12.447,12.915 -49.792,51.664 -61.571,63.886Z" style="fill:#fff;"/></g></svg>