<?xml version="1.0" encoding="UTF-8" standalone="no"?><!DOCTYPE svg PUBLIC "-//W3C//DTD SVG 1.1//EN" "http://www.w3.org/Graphics/SVG/1.1/DTD/svg11.dtd"><svg width="100%" height="100%" viewBox="0 0 150 147" version="1.1" xmlns="http://www.w3.org/2000/svg" xmlns:xlink="http://www.w3.org/1999/xlink" xml:space="preserve" style="fill-rule:evenodd;clip-rule:evenodd;stroke-linejoin:round;stroke-miterlimit:1.41421;"><path id="github" d="M75,0c-41.419,0 -75,33.575 -75,75.011c0,33.123 21.482,61.228 51.292,71.156c3.753,0.682 5.123,-1.639 5.123,-3.622c0,-1.779 -0.06,-6.495 -0.103,-12.758c-20.863,4.533 -25.261,-10.05 -25.261,-10.05c-3.412,-8.661 -8.332,-10.961 -8.332,-10.961c-6.807,-4.662 0.522,-4.564 0.522,-4.564c7.532,0.53 11.489,7.727 11.489,7.727c6.684,11.465 17.551,8.142 21.831,6.228c0.673,-4.853 2.61,-8.142 4.753,-10.022c-16.657,-1.888 -34.162,-8.34 -34.162,-37.073c0,-8.174 2.925,-14.878 7.712,-20.115c-0.765,-1.902 -3.338,-9.526 0.742,-19.854c0,0 6.289,-2.015 20.623,7.695c5.982,-1.67 12.405,-2.504 18.777,-2.53c6.371,0.026 12.789,0.86 18.771,2.53c14.328,-9.71 20.617,-7.695 20.617,-7.695c4.085,10.328 1.512,17.952 0.739,19.854c4.799,5.237 7.71,11.941 7.71,20.115c0,28.819 -17.543,35.159 -34.249,37.016c2.691,2.318 5.094,6.882 5.094,13.884c0,10.027 -0.091,18.112 -0.091,20.573c0,2.006 1.358,4.332 5.16,3.599c29.773,-9.927 51.243,-38.022 51.243,-71.133c0,-41.436 -33.569,-75.011 -75,-75.011Z" style="fill:#fefefe;fill-rule:nonzero;"/></svg>