<?xml version="1.0" encoding="UTF-8" standalone="no"?><!DOCTYPE svg PUBLIC "-//W3C//DTD SVG 1.1//EN" "http://www.w3.org/Graphics/SVG/1.1/DTD/svg11.dtd"><svg width="100%" height="100%" viewBox="0 0 151 150" version="1.1" xmlns="http://www.w3.org/2000/svg" xmlns:xlink="http://www.w3.org/1999/xlink" xml:space="preserve" style="fill-rule:evenodd;clip-rule:evenodd;stroke-linejoin:round;stroke-miterlimit:1.41421;"><g id="linkedin"><path d="M2.467,49.867l31.117,0l0,99.964l-31.117,0l0,-99.964Zm15.569,-49.694c9.947,0 18.015,8.08 18.015,18.012c0,9.941 -8.068,18.018 -18.015,18.018c-9.985,0 -18.036,-8.077 -18.036,-18.018c0,-9.932 8.051,-18.012 18.036,-18.012Z" style="fill:#fefefe;fill-rule:nonzero;"/><path d="M53.088,49.867l29.8,0l0,13.663l0.422,0c4.143,-7.866 14.292,-16.148 29.416,-16.148c31.453,0 37.274,20.696 37.274,47.616l0,54.833l-31.058,0l0,-48.602c0,-11.604 -0.228,-26.517 -16.16,-26.517c-16.18,0 -18.644,12.628 -18.644,25.659l0,49.46l-31.05,0l0,-99.964Z" style="fill:#fefefe;fill-rule:nonzero;"/></g><rect x="0" y="0" width="150" height="150" style="fill:none;"/></svg>