<?xml version="1.0" encoding="UTF-8" standalone="no"?><!DOCTYPE svg PUBLIC "-//W3C//DTD SVG 1.1//EN" "http://www.w3.org/Graphics/SVG/1.1/DTD/svg11.dtd"><svg width="100%" height="100%" viewBox="0 0 208 191" version="1.1" xmlns="http://www.w3.org/2000/svg" xmlns:xlink="http://www.w3.org/1999/xlink" xml:space="preserve" style="fill-rule:evenodd;clip-rule:evenodd;stroke-linejoin:round;stroke-miterlimit:1.41421;"><rect x="28.567" y="20.322" width="150" height="150" style="fill:none;"/><g id="React"><circle cx="103.569" cy="95.196" r="13.341" style="fill:#fff;stroke:#fff;stroke-width:1px;"/><path d="M103.996,64.882l0.426,0.002l0.426,0.002l0.425,0.003l0.425,0.005l0.424,0.005l0.424,0.006l0.423,0.007l0.422,0.008l0.422,0.009l0.422,0.01l0.421,0.011l0.42,0.012l0.42,0.013l0.42,0.013l0.418,0.015l0.418,0.015l0.418,0.017l0.417,0.017l0.416,0.018l0.416,0.019l0.415,0.02l0.414,0.021l0.414,0.022l0.413,0.023l0.413,0.024l0.411,0.024l0.412,0.025l0.41,0.027l0.41,0.027l0.409,0.028l0.408,0.029l0.408,0.03l0.407,0.031l0.406,0.031l0.405,0.033l0.405,0.033l0.404,0.035l0.403,0.035l0.402,0.036l0.402,0.037l0.401,0.037l0.4,0.039l0.399,0.039l0.398,0.041l0.398,0.041l0.397,0.042l0.396,0.043l0.395,0.043l0.394,0.045l0.394,0.045l0.392,0.047l0.392,0.047l0.391,0.047l0.39,0.049l0.389,0.05l0.388,0.05l0.387,0.051l0.386,0.052l0.386,0.053l0.384,0.054l0.384,0.055l0.382,0.055l0.382,0.056l0.381,0.057l0.379,0.058l0.379,0.058l0.378,0.06l0.377,0.06l0.375,0.061l0.375,0.062l0.374,0.062l0.373,0.064l0.371,0.064l0.371,0.065l0.37,0.066l0.368,0.066l0.368,0.068l0.366,0.068l0.365,0.069l0.365,0.069l0.363,0.071l0.362,0.071l0.361,0.072l0.36,0.073l0.359,0.074l0.357,0.074l0.357,0.075l0.355,0.076l0.355,0.077l0.353,0.077l0.352,0.078l0.35,0.079l0.35,0.08l0.348,0.08l0.348,0.081l0.346,0.082l0.344,0.083l0.344,0.083l0.342,0.085l0.341,0.084l0.34,0.086l0.339,0.086l0.337,0.088l0.337,0.088l0.334,0.088l0.334,0.089l0.332,0.091l0.331,0.09l0.33,0.092l0.329,0.092l0.327,0.093l0.326,0.094l0.324,0.094l0.324,0.096l0.321,0.095l0.321,0.097l0.319,0.097l0.318,0.098l0.316,0.099l0.315,0.1l0.314,0.1l0.312,0.101l0.311,0.101l0.31,0.103l0.308,0.103l0.307,0.104l0.306,0.104l0.366,0.127l0.364,0.128l0.362,0.129l0.36,0.13l0.358,0.131l0.355,0.133l0.354,0.133l0.351,0.134l0.35,0.135l0.347,0.136l0.345,0.137l0.343,0.139l0.34,0.139l0.339,0.14l0.336,0.141l0.334,0.142l0.332,0.143l0.329,0.143l0.327,0.145l0.326,0.146l0.322,0.146l0.321,0.148l0.318,0.148l0.316,0.149l0.314,0.15l0.311,0.151l0.31,0.152l0.306,0.153l0.305,0.154l0.302,0.154l0.3,0.155l0.297,0.156l0.296,0.157l0.293,0.158l0.29,0.159l0.288,0.159l0.286,0.16l0.283,0.161l0.281,0.162l0.278,0.163l0.276,0.163l0.274,0.164l0.271,0.165l0.269,0.166l0.267,0.166l0.263,0.167l0.262,0.168l0.259,0.169l0.256,0.17l0.254,0.17l0.252,0.171l0.249,0.172l0.246,0.172l0.244,0.174l0.242,0.174l0.239,0.174l0.236,0.176l0.234,0.176l0.231,0.177l0.229,0.178l0.226,0.178l0.223,0.179l0.221,0.18l0.218,0.181l0.216,0.181l0.213,0.182l0.21,0.183l0.208,0.184l0.205,0.184l0.202,0.185l0.2,0.186l0.197,0.187l0.194,0.187l0.192,0.188l0.189,0.189l0.186,0.19l0.183,0.191l0.181,0.191l0.178,0.192l0.175,0.193l0.172,0.194l0.169,0.194l0.167,0.196l0.163,0.196l0.161,0.197l0.158,0.198l0.155,0.198l0.152,0.2l0.148,0.201l0.146,0.201l0.143,0.202l0.14,0.203l0.137,0.204l0.134,0.205l0.13,0.206l0.128,0.207l0.124,0.208l0.121,0.209l0.118,0.21l0.114,0.21l0.111,0.212l0.108,0.213l0.104,0.213l0.101,0.215l0.097,0.215l0.094,0.217l0.09,0.218l0.087,0.218l0.08,0.213l0.042,0.117l0.039,0.11l0.039,0.11l0.037,0.111l0.036,0.111l0.035,0.112l0.034,0.111l0.034,0.112l0.032,0.112l0.031,0.112l0.03,0.112l0.03,0.113l0.028,0.113l0.027,0.113l0.026,0.113l0.026,0.113l0.024,0.114l0.023,0.114l0.022,0.113l0.021,0.114l0.019,0.115l0.019,0.114l0.018,0.115l0.016,0.115l0.016,0.115l0.014,0.114l0.013,0.116l0.013,0.115l0.011,0.116l0.009,0.115l0.009,0.116l0.008,0.115l0.006,0.116l0.005,0.116l0.005,0.116l0.002,0.116l0.002,0.116l0.001,0.116l-0.001,0.12l-0.002,0.121l-0.003,0.12l-0.004,0.12l-0.006,0.12l-0.006,0.12l-0.008,0.119l-0.01,0.12l-0.01,0.12l-0.011,0.119l-0.013,0.12l-0.014,0.119l-0.015,0.119l-0.017,0.12l-0.017,0.118l-0.019,0.119l-0.019,0.119l-0.021,0.118l-0.022,0.118l-0.023,0.118l-0.024,0.118l-0.026,0.118l-0.026,0.118l-0.028,0.117l-0.028,0.117l-0.03,0.117l-0.031,0.117l-0.032,0.117l-0.033,0.116l-0.034,0.116l-0.035,0.116l-0.036,0.115l-0.037,0.116l-0.038,0.115l-0.039,0.115l-0.04,0.115l-0.041,0.114l-0.042,0.115l-0.043,0.114l-0.044,0.113l-0.045,0.114l-0.046,0.113l-0.047,0.114l-0.048,0.113l-0.049,0.112l-0.05,0.112l-0.051,0.112l-0.051,0.112l-0.053,0.112l-0.056,0.117l-0.107,0.217l-0.114,0.221l-0.117,0.22l-0.12,0.219l-0.124,0.218l-0.128,0.218l-0.131,0.216l-0.134,0.216l-0.137,0.214l-0.141,0.214l-0.145,0.212l-0.147,0.212l-0.151,0.211l-0.154,0.21l-0.157,0.209l-0.161,0.208l-0.163,0.208l-0.167,0.206l-0.17,0.206l-0.173,0.205l-0.176,0.204l-0.179,0.203l-0.182,0.203l-0.185,0.201l-0.188,0.201l-0.191,0.2l-0.194,0.199l-0.197,0.199l-0.2,0.197l-0.203,0.197l-0.206,0.196l-0.208,0.195l-0.212,0.195l-0.215,0.194l-0.217,0.193l-0.22,0.192l-0.223,0.191l-0.226,0.191l-0.229,0.19l-0.232,0.189l-0.234,0.188l-0.237,0.188l-0.241,0.187l-0.242,0.186l-0.246,0.185l-0.248,0.185l-0.252,0.184l-0.253,0.183l-0.257,0.182l-0.259,0.181l-0.263,0.181l-0.264,0.18l-0.268,0.179l-0.27,0.178l-0.273,0.178l-0.276,0.177l-0.278,0.175l-0.281,0.176l-0.284,0.174l-0.286,0.173l-0.289,0.173l-0.292,0.172l-0.294,0.171l-0.297,0.17l-0.299,0.169l-0.302,0.168l-0.305,0.168l-0.307,0.167l-0.31,0.165l-0.312,0.165l-0.315,0.164l-0.318,0.163l-0.32,0.162l-0.322,0.162l-0.325,0.16l-0.328,0.159l-0.33,0.159l-0.333,0.157l-0.335,0.157l-0.338,0.156l-0.34,0.154l-0.343,0.154l-0.345,0.153l-0.347,0.151l-0.35,0.151l-0.353,0.15l-0.355,0.148l-0.357,0.148l-0.36,0.146l-0.362,0.146l-0.364,0.144l-0.367,0.144l-0.37,0.142l-0.371,0.141l-0.374,0.14l-0.377,0.14l-0.379,0.137l-0.381,0.137l-0.383,0.136l-0.386,0.134l-0.388,0.134l-0.39,0.132l-0.392,0.131l-0.3,0.098l-0.301,0.098l-0.302,0.097l-0.303,0.096l-0.305,0.096l-0.306,0.095l-0.307,0.093l-0.309,0.094l-0.31,0.092l-0.311,0.091l-0.312,0.091l-0.314,0.09l-0.314,0.089l-0.316,0.089l-0.318,0.088l-0.318,0.086l-0.32,0.087l-0.321,0.085l-0.322,0.085l-0.323,0.083l-0.325,0.083l-0.325,0.083l-0.327,0.081l-0.328,0.081l-0.329,0.08l-0.33,0.079l-0.332,0.079l-0.332,0.077l-0.334,0.077l-0.335,0.076l-0.335,0.076l-0.337,0.074l-0.338,0.074l-0.339,0.073l-0.34,0.072l-0.342,0.072l-0.342,0.071l-0.343,0.07l-0.345,0.069l-0.345,0.068l-0.346,0.068l-0.348,0.067l-0.348,0.066l-0.35,0.066l-0.35,0.064l-0.351,0.064l-0.353,0.063l-0.353,0.063l-0.355,0.061l-0.355,0.061l-0.356,0.06l-0.357,0.059l-0.358,0.059l-0.359,0.058l-0.36,0.057l-0.361,0.056l-0.362,0.055l-0.362,0.055l-0.364,0.054l-0.364,0.053l-0.365,0.053l-0.366,0.051l-0.367,0.051l-0.368,0.05l-0.369,0.05l-0.369,0.048l-0.37,0.048l-0.371,0.047l-0.372,0.046l-0.373,0.046l-0.373,0.045l-0.374,0.043l-0.375,0.044l-0.376,0.042l-0.376,0.042l-0.378,0.041l-0.378,0.04l-0.378,0.039l-0.38,0.039l-0.38,0.038l-0.38,0.037l-0.382,0.036l-0.382,0.035l-0.383,0.035l-0.383,0.034l-0.385,0.033l-0.385,0.033l-0.385,0.031l-0.386,0.031l-0.387,0.03l-0.387,0.03l-0.388,0.028l-0.389,0.028l-0.389,0.027l-0.39,0.026l-0.39,0.026l-0.391,0.024l-0.392,0.024l-0.392,0.023l-0.392,0.023l-0.393,0.021l-0.394,0.021l-0.394,0.02l-0.395,0.019l-0.395,0.019l-0.396,0.017l-0.396,0.017l-0.397,0.016l-0.397,0.015l-0.397,0.015l-0.398,0.014l-0.399,0.013l-0.399,0.012l-0.399,0.011l-0.4,0.011l-0.4,0.01l-0.401,0.009l-0.401,0.008l-0.401,0.008l-0.402,0.006l-0.402,0.006l-0.403,0.005l-0.402,0.005l-0.404,0.003l-0.403,0.003l-0.404,0.002l-0.404,0.001l-0.406,0.001l-0.827,-0.002l-0.826,-0.004l-0.825,-0.008l-0.824,-0.01l-0.822,-0.014l-0.819,-0.016l-0.411,-0.009l-0.409,-0.01l-0.408,-0.011l-0.409,-0.012l-0.407,-0.012l-0.408,-0.013l-0.406,-0.014l-0.407,-0.014l-0.405,-0.016l-0.406,-0.016l-0.404,-0.017l-0.405,-0.017l-0.403,-0.019l-0.404,-0.019l-0.402,-0.02l-0.402,-0.021l-0.402,-0.021l-0.401,-0.022l-0.4,-0.023l-0.4,-0.024l-0.399,-0.024l-0.398,-0.026l-0.398,-0.026l-0.397,-0.026l-0.397,-0.028l-0.396,-0.028l-0.395,-0.029l-0.395,-0.03l-0.394,-0.031l-0.393,-0.032l-0.393,-0.032l-0.392,-0.033l-0.391,-0.034l-0.391,-0.034l-0.39,-0.035l-0.389,-0.037l-0.388,-0.036l-0.388,-0.038l-0.386,-0.039l-0.387,-0.039l-0.385,-0.04l-0.384,-0.041l-0.384,-0.041l-0.383,-0.043l-0.382,-0.043l-0.381,-0.044l-0.381,-0.045l-0.38,-0.046l-0.378,-0.046l-0.378,-0.047l-0.378,-0.048l-0.376,-0.049l-0.375,-0.05l-0.375,-0.05l-0.373,-0.051l-0.373,-0.052l-0.372,-0.053l-0.371,-0.054l-0.37,-0.054l-0.369,-0.055l-0.368,-0.056l-0.367,-0.057l-0.366,-0.058l-0.365,-0.058l-0.365,-0.06l-0.363,-0.06l-0.362,-0.061l-0.362,-0.061l-0.36,-0.063l-0.359,-0.063l-0.358,-0.065l-0.358,-0.065l-0.356,-0.066l-0.355,-0.066l-0.354,-0.068l-0.353,-0.068l-0.352,-0.069l-0.351,-0.071l-0.35,-0.07l-0.349,-0.072l-0.347,-0.073l-0.347,-0.073l-0.345,-0.074l-0.344,-0.075l-0.343,-0.076l-0.342,-0.077l-0.341,-0.078l-0.34,-0.078l-0.338,-0.08l-0.338,-0.08l-0.336,-0.081l-0.335,-0.082l-0.333,-0.083l-0.333,-0.083l-0.331,-0.085l-0.33,-0.085l-0.329,-0.086l-0.328,-0.087l-0.326,-0.088l-0.325,-0.089l-0.324,-0.09l-0.323,-0.091l-0.321,-0.091l-0.32,-0.092l-0.319,-0.094l-0.317,-0.094l-0.316,-0.095l-0.315,-0.096l-0.314,-0.097l-0.312,-0.097l-0.311,-0.099l-0.309,-0.1l-0.308,-0.1l-0.307,-0.101l-0.305,-0.103l-0.305,-0.103l-0.38,-0.131l-0.379,-0.133l-0.376,-0.133l-0.375,-0.135l-0.371,-0.136l-0.37,-0.137l-0.367,-0.139l-0.365,-0.139l-0.363,-0.141l-0.361,-0.142l-0.358,-0.142l-0.355,-0.144l-0.354,-0.146l-0.351,-0.146l-0.349,-0.147l-0.346,-0.148l-0.344,-0.15l-0.341,-0.15l-0.34,-0.152l-0.336,-0.153l-0.335,-0.153l-0.332,-0.155l-0.329,-0.155l-0.327,-0.157l-0.325,-0.157l-0.322,-0.159l-0.32,-0.16l-0.317,-0.16l-0.315,-0.161l-0.313,-0.163l-0.309,-0.163l-0.308,-0.164l-0.305,-0.165l-0.302,-0.166l-0.3,-0.167l-0.297,-0.168l-0.295,-0.169l-0.292,-0.169l-0.29,-0.171l-0.287,-0.171l-0.285,-0.172l-0.282,-0.173l-0.28,-0.174l-0.277,-0.174l-0.274,-0.176l-0.272,-0.176l-0.269,-0.177l-0.266,-0.178l-0.264,-0.179l-0.261,-0.179l-0.259,-0.18l-0.256,-0.181l-0.253,-0.182l-0.251,-0.182l-0.248,-0.184l-0.245,-0.184l-0.243,-0.184l-0.24,-0.186l-0.237,-0.186l-0.235,-0.187l-0.231,-0.188l-0.23,-0.188l-0.226,-0.19l-0.224,-0.19l-0.22,-0.19l-0.218,-0.192l-0.216,-0.192l-0.212,-0.193l-0.21,-0.193l-0.207,-0.194l-0.204,-0.195l-0.201,-0.196l-0.199,-0.197l-0.195,-0.197l-0.193,-0.198l-0.19,-0.198l-0.187,-0.2l-0.184,-0.2l-0.181,-0.201l-0.179,-0.201l-0.175,-0.202l-0.172,-0.203l-0.17,-0.204l-0.166,-0.205l-0.163,-0.205l-0.161,-0.206l-0.157,-0.207l-0.154,-0.208l-0.152,-0.208l-0.148,-0.209l-0.145,-0.21l-0.141,-0.211l-0.139,-0.211l-0.136,-0.213l-0.132,-0.213l-0.129,-0.214l-0.125,-0.215l-0.123,-0.215l-0.119,-0.217l-0.115,-0.217l-0.113,-0.218l-0.108,-0.219l-0.106,-0.22l-0.101,-0.221l-0.099,-0.221l-0.094,-0.223l-0.091,-0.223l-0.085,-0.218l-0.044,-0.118l-0.042,-0.113l-0.04,-0.113l-0.039,-0.113l-0.039,-0.113l-0.037,-0.113l-0.037,-0.114l-0.035,-0.113l-0.035,-0.114l-0.033,-0.115l-0.033,-0.114l-0.031,-0.114l-0.031,-0.115l-0.029,-0.115l-0.028,-0.115l-0.028,-0.115l-0.026,-0.116l-0.025,-0.115l-0.025,-0.116l-0.023,-0.116l-0.022,-0.116l-0.021,-0.116l-0.02,-0.116l-0.019,-0.117l-0.018,-0.117l-0.016,-0.116l-0.016,-0.117l-0.015,-0.117l-0.013,-0.117l-0.012,-0.118l-0.011,-0.117l-0.01,-0.117l-0.009,-0.118l-0.008,-0.117l-0.006,-0.118l-0.005,-0.118l-0.004,-0.117l-0.003,-0.118l-0.002,-0.118l-0.001,-0.117l0.001,-0.115l0.001,-0.114l0.003,-0.114l0.004,-0.114l0.005,-0.115l0.006,-0.114l0.007,-0.113l0.009,-0.114l0.009,-0.114l0.01,-0.114l0.012,-0.113l0.012,-0.114l0.014,-0.113l0.015,-0.113l0.016,-0.114l0.016,-0.113l0.018,-0.112l0.019,-0.113l0.02,-0.113l0.021,-0.112l0.022,-0.112l0.023,-0.112l0.024,-0.112l0.025,-0.112l0.025,-0.111l0.027,-0.112l0.028,-0.111l0.031,-0.118l0.059,-0.214l0.064,-0.221l0.068,-0.22l0.072,-0.219l0.076,-0.218l0.079,-0.217l0.083,-0.217l0.086,-0.215l0.09,-0.215l0.094,-0.214l0.096,-0.212l0.1,-0.212l0.104,-0.211l0.107,-0.21l0.11,-0.21l0.113,-0.208l0.116,-0.207l0.12,-0.207l0.123,-0.205l0.125,-0.205l0.129,-0.204l0.132,-0.203l0.135,-0.202l0.138,-0.201l0.141,-0.201l0.144,-0.199l0.147,-0.199l0.149,-0.198l0.153,-0.197l0.155,-0.196l0.158,-0.195l0.162,-0.195l0.163,-0.193l0.167,-0.193l0.17,-0.192l0.172,-0.192l0.175,-0.19l0.177,-0.19l0.181,-0.189l0.183,-0.188l0.186,-0.188l0.188,-0.187l0.192,-0.186l0.194,-0.185l0.196,-0.184l0.199,-0.184l0.202,-0.183l0.204,-0.183l0.207,-0.181l0.21,-0.181l0.212,-0.18l0.215,-0.179l0.218,-0.179l0.219,-0.178l0.223,-0.177l0.225,-0.176l0.228,-0.176l0.23,-0.175l0.233,-0.174l0.235,-0.173l0.238,-0.173l0.24,-0.172l0.243,-0.171l0.245,-0.171l0.248,-0.17l0.25,-0.169l0.253,-0.168l0.255,-0.167l0.257,-0.167l0.26,-0.166l0.263,-0.165l0.265,-0.165l0.267,-0.164l0.27,-0.162l0.272,-0.163l0.275,-0.161l0.277,-0.16l0.28,-0.16l0.281,-0.159l0.285,-0.158l0.286,-0.158l0.289,-0.156l0.292,-0.156l0.294,-0.155l0.296,-0.154l0.298,-0.153l0.301,-0.152l0.303,-0.152l0.306,-0.15l0.307,-0.15l0.31,-0.149l0.313,-0.148l0.315,-0.147l0.317,-0.146l0.319,-0.146l0.321,-0.144l0.324,-0.144l0.326,-0.142l0.329,-0.142l0.33,-0.141l0.333,-0.139l0.336,-0.139l0.337,-0.138l0.339,-0.137l0.342,-0.136l0.344,-0.135l0.347,-0.134l0.348,-0.133l0.351,-0.132l0.353,-0.131l0.355,-0.13l0.357,-0.129l0.359,-0.128l0.361,-0.127l0.308,-0.106l0.308,-0.106l0.31,-0.105l0.312,-0.104l0.313,-0.103l0.314,-0.103l0.316,-0.102l0.318,-0.101l0.319,-0.101l0.32,-0.1l0.322,-0.099l0.324,-0.098l0.324,-0.098l0.327,-0.096l0.327,-0.097l0.329,-0.095l0.331,-0.095l0.332,-0.093l0.333,-0.094l0.335,-0.092l0.336,-0.092l0.337,-0.091l0.339,-0.09l0.34,-0.089l0.342,-0.089l0.342,-0.088l0.345,-0.087l0.345,-0.087l0.347,-0.085l0.348,-0.085l0.349,-0.084l0.351,-0.084l0.352,-0.082l0.353,-0.082l0.354,-0.081l0.356,-0.081l0.357,-0.079l0.358,-0.079l0.359,-0.078l0.36,-0.078l0.362,-0.076l0.363,-0.076l0.364,-0.075l0.365,-0.074l0.367,-0.073l0.367,-0.073l0.369,-0.072l0.37,-0.071l0.371,-0.07l0.372,-0.069l0.373,-0.069l0.374,-0.068l0.376,-0.067l0.376,-0.066l0.378,-0.065l0.379,-0.065l0.379,-0.064l0.381,-0.063l0.382,-0.062l0.382,-0.061l0.384,-0.061l0.385,-0.059l0.386,-0.059l0.387,-0.058l0.387,-0.057l0.389,-0.057l0.39,-0.055l0.391,-0.055l0.391,-0.054l0.393,-0.053l0.393,-0.052l0.395,-0.052l0.395,-0.05l0.396,-0.05l0.397,-0.049l0.398,-0.048l0.399,-0.047l0.4,-0.046l0.4,-0.046l0.402,-0.044l0.402,-0.044l0.403,-0.043l0.404,-0.042l0.405,-0.041l0.405,-0.04l0.406,-0.04l0.407,-0.038l0.408,-0.038l0.409,-0.036l0.409,-0.036l0.41,-0.035l0.411,-0.034l0.411,-0.034l0.413,-0.032l0.413,-0.031l0.413,-0.031l0.415,-0.029l0.415,-0.029l0.415,-0.028l0.416,-0.027l0.417,-0.026l0.418,-0.025l0.418,-0.024l0.419,-0.023l0.42,-0.022l0.42,-0.022l0.42,-0.02l0.422,-0.02l0.421,-0.018l0.423,-0.018l0.423,-0.017l0.423,-0.016l0.424,-0.014l0.425,-0.014l0.425,-0.013l0.425,-0.012l0.426,-0.012l0.427,-0.01l0.427,-0.009l0.427,-0.008l0.428,-0.007l0.429,-0.007l0.429,-0.005l0.429,-0.004l0.43,-0.004l0.43,-0.002l0.43,-0.002l0.431,0l0.427,0Zm-0.843,6.382l-0.416,0.001l-0.416,0.003l-0.415,0.003l-0.415,0.004l-0.414,0.005l-0.414,0.006l-0.414,0.007l-0.413,0.008l-0.413,0.009l-0.412,0.01l-0.411,0.011l-0.412,0.011l-0.41,0.013l-0.41,0.013l-0.41,0.015l-0.409,0.015l-0.409,0.016l-0.408,0.017l-0.407,0.018l-0.407,0.019l-0.406,0.02l-0.406,0.021l-0.405,0.021l-0.404,0.023l-0.404,0.023l-0.403,0.024l-0.403,0.025l-0.401,0.026l-0.402,0.027l-0.4,0.028l-0.4,0.028l-0.399,0.03l-0.398,0.03l-0.398,0.031l-0.397,0.032l-0.396,0.033l-0.396,0.034l-0.394,0.034l-0.394,0.036l-0.393,0.036l-0.393,0.037l-0.391,0.038l-0.391,0.039l-0.39,0.039l-0.389,0.041l-0.388,0.041l-0.387,0.042l-0.387,0.043l-0.386,0.044l-0.384,0.044l-0.384,0.046l-0.383,0.046l-0.382,0.047l-0.381,0.048l-0.38,0.048l-0.38,0.05l-0.378,0.05l-0.377,0.051l-0.376,0.052l-0.376,0.052l-0.374,0.054l-0.373,0.054l-0.373,0.055l-0.371,0.056l-0.37,0.056l-0.369,0.057l-0.369,0.058l-0.367,0.059l-0.366,0.06l-0.364,0.06l-0.364,0.061l-0.363,0.062l-0.361,0.063l-0.361,0.063l-0.359,0.064l-0.358,0.065l-0.357,0.066l-0.356,0.066l-0.354,0.067l-0.354,0.068l-0.352,0.069l-0.351,0.069l-0.349,0.07l-0.349,0.071l-0.347,0.071l-0.346,0.072l-0.345,0.073l-0.343,0.074l-0.342,0.074l-0.341,0.075l-0.34,0.076l-0.338,0.076l-0.337,0.077l-0.335,0.078l-0.334,0.079l-0.333,0.079l-0.331,0.08l-0.33,0.08l-0.329,0.081l-0.327,0.082l-0.326,0.083l-0.324,0.083l-0.323,0.084l-0.321,0.084l-0.32,0.086l-0.319,0.085l-0.317,0.087l-0.315,0.087l-0.314,0.088l-0.313,0.088l-0.311,0.089l-0.309,0.09l-0.308,0.09l-0.306,0.091l-0.305,0.092l-0.303,0.092l-0.302,0.093l-0.3,0.093l-0.298,0.094l-0.296,0.095l-0.295,0.095l-0.294,0.096l-0.292,0.096l-0.29,0.097l-0.288,0.097l-0.287,0.099l-0.284,0.098l-0.335,0.118l-0.332,0.118l-0.331,0.119l-0.328,0.12l-0.325,0.121l-0.324,0.122l-0.321,0.123l-0.318,0.123l-0.317,0.124l-0.314,0.125l-0.311,0.126l-0.31,0.126l-0.307,0.127l-0.304,0.128l-0.302,0.129l-0.3,0.129l-0.297,0.13l-0.295,0.131l-0.293,0.131l-0.29,0.132l-0.288,0.133l-0.285,0.133l-0.282,0.134l-0.281,0.135l-0.277,0.135l-0.275,0.135l-0.273,0.137l-0.27,0.137l-0.268,0.137l-0.265,0.138l-0.263,0.138l-0.26,0.139l-0.257,0.14l-0.255,0.139l-0.252,0.141l-0.25,0.141l-0.247,0.141l-0.244,0.141l-0.242,0.142l-0.239,0.143l-0.237,0.143l-0.234,0.143l-0.231,0.143l-0.229,0.144l-0.225,0.144l-0.224,0.145l-0.22,0.144l-0.218,0.145l-0.215,0.146l-0.212,0.145l-0.21,0.146l-0.207,0.146l-0.204,0.146l-0.201,0.146l-0.198,0.146l-0.196,0.147l-0.193,0.147l-0.19,0.146l-0.188,0.147l-0.184,0.147l-0.182,0.147l-0.179,0.147l-0.176,0.147l-0.173,0.147l-0.17,0.146l-0.167,0.147l-0.165,0.147l-0.162,0.147l-0.158,0.146l-0.156,0.146l-0.153,0.146l-0.15,0.146l-0.147,0.146l-0.144,0.146l-0.142,0.145l-0.138,0.145l-0.136,0.145l-0.132,0.144l-0.13,0.144l-0.126,0.143l-0.124,0.144l-0.121,0.142l-0.117,0.143l-0.115,0.141l-0.112,0.142l-0.109,0.14l-0.106,0.141l-0.103,0.139l-0.101,0.139l-0.097,0.138l-0.094,0.138l-0.092,0.137l-0.088,0.136l-0.086,0.136l-0.083,0.135l-0.08,0.134l-0.077,0.133l-0.074,0.132l-0.072,0.131l-0.068,0.131l-0.066,0.13l-0.063,0.128l-0.06,0.128l-0.058,0.127l-0.055,0.126l-0.052,0.124l-0.05,0.124l-0.047,0.123l-0.044,0.122l-0.042,0.12l-0.039,0.12l-0.037,0.119l-0.035,0.117l-0.033,0.123l-0.014,0.052l-0.014,0.057l-0.014,0.058l-0.013,0.057l-0.013,0.056l-0.012,0.057l-0.012,0.056l-0.011,0.056l-0.01,0.056l-0.01,0.056l-0.009,0.055l-0.009,0.055l-0.008,0.055l-0.007,0.055l-0.008,0.054l-0.006,0.055l-0.006,0.054l-0.005,0.053l-0.005,0.054l-0.005,0.053l-0.004,0.053l-0.003,0.053l-0.003,0.053l-0.002,0.053l-0.002,0.052l-0.001,0.052l-0.001,0.052l0,0.052l0,0.054l0.001,0.053l0.001,0.054l0.002,0.054l0.003,0.055l0.003,0.054l0.003,0.055l0.004,0.055l0.005,0.056l0.005,0.056l0.006,0.056l0.007,0.056l0.007,0.056l0.007,0.057l0.008,0.058l0.009,0.057l0.009,0.058l0.01,0.058l0.011,0.058l0.011,0.059l0.012,0.059l0.012,0.059l0.014,0.06l0.013,0.06l0.015,0.06l0.015,0.061l0.015,0.061l0.016,0.061l0.017,0.062l0.018,0.061l0.018,0.063l0.019,0.062l0.02,0.063l0.02,0.063l0.021,0.063l0.021,0.064l0.023,0.064l0.023,0.064l0.023,0.065l0.023,0.059l0.053,0.137l0.054,0.132l0.056,0.133l0.06,0.134l0.062,0.136l0.066,0.136l0.068,0.138l0.071,0.139l0.075,0.139l0.077,0.141l0.08,0.141l0.084,0.143l0.086,0.143l0.09,0.145l0.092,0.145l0.096,0.146l0.099,0.147l0.101,0.147l0.105,0.148l0.108,0.149l0.112,0.15l0.114,0.15l0.117,0.151l0.121,0.151l0.123,0.152l0.127,0.153l0.13,0.153l0.133,0.153l0.136,0.154l0.139,0.154l0.142,0.155l0.146,0.155l0.148,0.155l0.152,0.156l0.154,0.155l0.158,0.156l0.16,0.157l0.164,0.156l0.167,0.157l0.17,0.156l0.173,0.157l0.176,0.157l0.178,0.157l0.182,0.157l0.185,0.157l0.188,0.157l0.191,0.157l0.194,0.157l0.197,0.157l0.199,0.157l0.203,0.157l0.206,0.156l0.208,0.157l0.212,0.156l0.214,0.156l0.217,0.156l0.22,0.155l0.223,0.156l0.226,0.155l0.228,0.155l0.232,0.154l0.234,0.154l0.237,0.154l0.24,0.153l0.243,0.153l0.246,0.153l0.248,0.152l0.251,0.152l0.254,0.151l0.256,0.151l0.259,0.151l0.262,0.149l0.265,0.15l0.267,0.149l0.27,0.148l0.273,0.148l0.275,0.147l0.278,0.146l0.281,0.146l0.283,0.145l0.286,0.145l0.289,0.144l0.291,0.143l0.294,0.143l0.296,0.141l0.299,0.141l0.301,0.141l0.304,0.139l0.307,0.139l0.309,0.138l0.311,0.138l0.314,0.136l0.317,0.136l0.319,0.134l0.321,0.134l0.324,0.133l0.327,0.132l0.328,0.132l0.332,0.13l0.333,0.129l0.336,0.129l0.339,0.127l0.341,0.127l0.343,0.125l0.346,0.125l0.348,0.123l0.35,0.123l0.353,0.122l0.279,0.094l0.281,0.094l0.282,0.094l0.284,0.092l0.286,0.092l0.287,0.091l0.289,0.091l0.29,0.089l0.292,0.089l0.293,0.088l0.295,0.088l0.296,0.087l0.298,0.086l0.299,0.085l0.301,0.084l0.302,0.084l0.304,0.083l0.305,0.082l0.306,0.082l0.308,0.08l0.309,0.08l0.311,0.08l0.312,0.078l0.313,0.078l0.315,0.077l0.317,0.076l0.317,0.076l0.319,0.074l0.32,0.074l0.321,0.073l0.323,0.073l0.324,0.072l0.326,0.071l0.326,0.07l0.328,0.069l0.329,0.069l0.331,0.068l0.331,0.067l0.333,0.067l0.334,0.065l0.335,0.065l0.337,0.064l0.338,0.064l0.338,0.063l0.34,0.061l0.341,0.062l0.343,0.06l0.343,0.06l0.345,0.059l0.345,0.058l0.347,0.057l0.348,0.057l0.349,0.056l0.35,0.055l0.351,0.054l0.352,0.054l0.353,0.053l0.354,0.052l0.355,0.051l0.357,0.051l0.357,0.049l0.358,0.05l0.359,0.048l0.36,0.047l0.362,0.047l0.362,0.046l0.363,0.046l0.364,0.044l0.365,0.044l0.366,0.043l0.366,0.043l0.368,0.041l0.368,0.041l0.37,0.04l0.37,0.039l0.371,0.039l0.372,0.038l0.373,0.037l0.374,0.036l0.374,0.036l0.376,0.035l0.376,0.034l0.377,0.033l0.377,0.033l0.379,0.032l0.379,0.031l0.38,0.03l0.381,0.03l0.381,0.029l0.382,0.028l0.383,0.027l0.384,0.027l0.384,0.026l0.385,0.025l0.386,0.024l0.386,0.024l0.387,0.023l0.388,0.022l0.388,0.022l0.389,0.021l0.389,0.02l0.39,0.019l0.391,0.019l0.391,0.017l0.392,0.017l0.393,0.017l0.393,0.015l0.393,0.015l0.395,0.014l0.394,0.014l0.395,0.013l0.396,0.011l0.396,0.012l0.397,0.01l0.397,0.01l0.397,0.009l0.798,0.016l0.798,0.013l0.801,0.01l0.802,0.007l0.803,0.005l0.807,0.001l0.39,0l0.392,-0.001l0.391,-0.002l0.391,-0.003l0.391,-0.004l0.39,-0.004l0.39,-0.005l0.39,-0.005l0.389,-0.007l0.389,-0.007l0.388,-0.008l0.388,-0.009l0.388,-0.009l0.387,-0.011l0.387,-0.011l0.386,-0.012l0.386,-0.012l0.385,-0.014l0.385,-0.014l0.384,-0.014l0.384,-0.016l0.383,-0.016l0.383,-0.017l0.382,-0.018l0.382,-0.019l0.381,-0.019l0.381,-0.02l0.38,-0.021l0.379,-0.022l0.379,-0.022l0.379,-0.023l0.377,-0.024l0.378,-0.025l0.376,-0.025l0.376,-0.026l0.375,-0.027l0.375,-0.027l0.374,-0.029l0.373,-0.029l0.373,-0.029l0.372,-0.031l0.371,-0.031l0.37,-0.032l0.37,-0.033l0.37,-0.034l0.368,-0.034l0.368,-0.035l0.367,-0.035l0.366,-0.037l0.365,-0.037l0.365,-0.038l0.364,-0.038l0.363,-0.04l0.362,-0.04l0.362,-0.041l0.36,-0.041l0.36,-0.043l0.359,-0.043l0.358,-0.043l0.357,-0.045l0.357,-0.045l0.356,-0.046l0.354,-0.047l0.354,-0.047l0.353,-0.048l0.352,-0.049l0.351,-0.049l0.35,-0.051l0.349,-0.051l0.348,-0.051l0.348,-0.053l0.346,-0.053l0.345,-0.054l0.345,-0.054l0.343,-0.055l0.343,-0.056l0.341,-0.057l0.34,-0.057l0.34,-0.058l0.338,-0.059l0.337,-0.06l0.336,-0.06l0.335,-0.061l0.334,-0.061l0.333,-0.063l0.332,-0.063l0.331,-0.064l0.329,-0.064l0.329,-0.065l0.327,-0.066l0.326,-0.066l0.326,-0.068l0.323,-0.068l0.323,-0.068l0.322,-0.069l0.32,-0.07l0.319,-0.071l0.318,-0.071l0.317,-0.072l0.315,-0.073l0.315,-0.074l0.313,-0.074l0.311,-0.074l0.311,-0.076l0.309,-0.076l0.308,-0.077l0.306,-0.077l0.306,-0.078l0.304,-0.079l0.302,-0.08l0.302,-0.08l0.3,-0.081l0.298,-0.081l0.298,-0.082l0.295,-0.083l0.295,-0.084l0.293,-0.084l0.292,-0.085l0.29,-0.085l0.289,-0.086l0.287,-0.087l0.286,-0.087l0.285,-0.088l0.283,-0.089l0.282,-0.089l0.28,-0.09l0.278,-0.091l0.277,-0.091l0.366,-0.122l0.364,-0.123l0.361,-0.124l0.358,-0.125l0.356,-0.126l0.354,-0.127l0.351,-0.128l0.349,-0.129l0.346,-0.129l0.344,-0.131l0.341,-0.132l0.339,-0.132l0.336,-0.133l0.334,-0.134l0.331,-0.135l0.328,-0.136l0.326,-0.136l0.324,-0.138l0.321,-0.138l0.318,-0.139l0.316,-0.139l0.313,-0.141l0.31,-0.141l0.308,-0.142l0.305,-0.142l0.302,-0.144l0.3,-0.143l0.297,-0.145l0.295,-0.145l0.291,-0.146l0.289,-0.146l0.286,-0.147l0.284,-0.148l0.28,-0.148l0.278,-0.149l0.275,-0.149l0.273,-0.15l0.269,-0.15l0.267,-0.151l0.264,-0.151l0.261,-0.151l0.258,-0.153l0.255,-0.152l0.253,-0.153l0.249,-0.153l0.247,-0.154l0.243,-0.154l0.241,-0.154l0.238,-0.155l0.235,-0.155l0.232,-0.155l0.229,-0.156l0.226,-0.155l0.222,-0.156l0.22,-0.157l0.217,-0.156l0.214,-0.156l0.211,-0.157l0.208,-0.157l0.205,-0.157l0.201,-0.157l0.199,-0.157l0.195,-0.157l0.193,-0.157l0.189,-0.157l0.186,-0.157l0.183,-0.157l0.18,-0.157l0.176,-0.157l0.174,-0.157l0.17,-0.156l0.168,-0.156l0.163,-0.157l0.161,-0.156l0.158,-0.155l0.154,-0.156l0.151,-0.155l0.148,-0.155l0.145,-0.154l0.141,-0.154l0.139,-0.154l0.135,-0.153l0.131,-0.153l0.129,-0.152l0.125,-0.152l0.122,-0.151l0.119,-0.15l0.115,-0.15l0.112,-0.15l0.109,-0.148l0.106,-0.148l0.103,-0.147l0.099,-0.147l0.096,-0.145l0.093,-0.145l0.089,-0.144l0.087,-0.143l0.083,-0.142l0.08,-0.141l0.077,-0.14l0.074,-0.139l0.071,-0.138l0.07,-0.142l0.031,-0.063l0.031,-0.068l0.032,-0.067l0.03,-0.067l0.03,-0.067l0.029,-0.067l0.028,-0.066l0.027,-0.066l0.027,-0.066l0.026,-0.065l0.025,-0.066l0.025,-0.065l0.023,-0.064l0.024,-0.065l0.022,-0.064l0.022,-0.063l0.021,-0.064l0.02,-0.063l0.019,-0.062l0.019,-0.063l0.018,-0.062l0.018,-0.062l0.017,-0.062l0.016,-0.061l0.015,-0.061l0.015,-0.06l0.014,-0.061l0.014,-0.06l0.013,-0.059l0.012,-0.06l0.011,-0.059l0.011,-0.059l0.011,-0.058l0.009,-0.059l0.009,-0.058l0.009,-0.058l0.008,-0.057l0.007,-0.057l0.007,-0.057l0.006,-0.056l0.005,-0.057l0.005,-0.056l0.004,-0.056l0.004,-0.056l0.003,-0.055l0.003,-0.055l0.002,-0.055l0.001,-0.055l0.001,-0.054l0,-0.055l0,-0.051l-0.001,-0.052l-0.001,-0.051l-0.002,-0.052l-0.002,-0.052l-0.003,-0.053l-0.004,-0.052l-0.004,-0.053l-0.004,-0.053l-0.005,-0.053l-0.006,-0.053l-0.006,-0.054l-0.007,-0.054l-0.007,-0.054l-0.008,-0.054l-0.008,-0.055l-0.009,-0.055l-0.01,-0.055l-0.01,-0.055l-0.011,-0.056l-0.011,-0.056l-0.012,-0.056l-0.013,-0.057l-0.013,-0.056l-0.013,-0.057l-0.015,-0.057l-0.015,-0.058l-0.015,-0.058l-0.017,-0.058l-0.016,-0.058l-0.018,-0.059l-0.018,-0.059l-0.019,-0.06l-0.019,-0.059l-0.02,-0.06l-0.021,-0.06l-0.021,-0.06l-0.02,-0.055l-0.049,-0.128l-0.048,-0.124l-0.052,-0.124l-0.054,-0.126l-0.058,-0.126l-0.06,-0.128l-0.062,-0.129l-0.066,-0.129l-0.069,-0.131l-0.071,-0.132l-0.075,-0.132l-0.077,-0.134l-0.08,-0.134l-0.084,-0.136l-0.086,-0.136l-0.089,-0.137l-0.093,-0.137l-0.095,-0.139l-0.098,-0.139l-0.102,-0.14l-0.104,-0.141l-0.108,-0.141l-0.11,-0.142l-0.113,-0.142l-0.117,-0.143l-0.12,-0.143l-0.122,-0.144l-0.126,-0.145l-0.129,-0.145l-0.132,-0.145l-0.134,-0.145l-0.138,-0.146l-0.141,-0.147l-0.144,-0.147l-0.147,-0.146l-0.15,-0.148l-0.153,-0.147l-0.155,-0.148l-0.159,-0.148l-0.162,-0.148l-0.165,-0.148l-0.168,-0.148l-0.17,-0.148l-0.174,-0.149l-0.176,-0.148l-0.18,-0.149l-0.182,-0.148l-0.185,-0.149l-0.188,-0.148l-0.191,-0.149l-0.194,-0.148l-0.197,-0.148l-0.2,-0.149l-0.202,-0.148l-0.205,-0.147l-0.208,-0.148l-0.211,-0.148l-0.213,-0.147l-0.217,-0.147l-0.219,-0.147l-0.222,-0.147l-0.224,-0.146l-0.228,-0.146l-0.23,-0.146l-0.232,-0.145l-0.236,-0.146l-0.238,-0.144l-0.241,-0.145l-0.243,-0.144l-0.246,-0.143l-0.249,-0.144l-0.251,-0.142l-0.254,-0.143l-0.257,-0.142l-0.259,-0.141l-0.261,-0.141l-0.265,-0.141l-0.267,-0.14l-0.269,-0.139l-0.272,-0.139l-0.274,-0.138l-0.277,-0.138l-0.279,-0.137l-0.282,-0.137l-0.284,-0.136l-0.287,-0.136l-0.289,-0.134l-0.292,-0.134l-0.294,-0.134l-0.297,-0.133l-0.298,-0.132l-0.302,-0.131l-0.303,-0.131l-0.306,-0.13l-0.309,-0.13l-0.31,-0.128l-0.313,-0.128l-0.316,-0.127l-0.317,-0.126l-0.32,-0.126l-0.322,-0.124l-0.325,-0.124l-0.327,-0.123l-0.329,-0.123l-0.331,-0.121l-0.333,-0.12l-0.336,-0.12l-0.338,-0.119l-0.34,-0.118l-0.284,-0.097l-0.285,-0.097l-0.288,-0.096l-0.288,-0.095l-0.291,-0.095l-0.292,-0.094l-0.293,-0.094l-0.295,-0.093l-0.296,-0.093l-0.298,-0.092l-0.3,-0.091l-0.301,-0.091l-0.302,-0.09l-0.304,-0.089l-0.305,-0.089l-0.307,-0.088l-0.308,-0.088l-0.309,-0.087l-0.311,-0.086l-0.312,-0.086l-0.314,-0.085l-0.315,-0.084l-0.317,-0.084l-0.318,-0.083l-0.319,-0.082l-0.32,-0.082l-0.322,-0.081l-0.323,-0.081l-0.325,-0.079l-0.326,-0.08l-0.327,-0.078l-0.328,-0.078l-0.33,-0.077l-0.331,-0.076l-0.332,-0.076l-0.334,-0.075l-0.334,-0.074l-0.336,-0.074l-0.338,-0.073l-0.338,-0.072l-0.34,-0.072l-0.341,-0.071l-0.342,-0.07l-0.343,-0.069l-0.344,-0.069l-0.346,-0.068l-0.347,-0.067l-0.348,-0.067l-0.349,-0.066l-0.35,-0.065l-0.351,-0.064l-0.353,-0.064l-0.353,-0.063l-0.355,-0.062l-0.356,-0.061l-0.356,-0.061l-0.358,-0.06l-0.359,-0.059l-0.36,-0.059l-0.361,-0.057l-0.362,-0.057l-0.363,-0.056l-0.365,-0.056l-0.365,-0.054l-0.366,-0.054l-0.367,-0.053l-0.368,-0.053l-0.369,-0.051l-0.371,-0.051l-0.371,-0.05l-0.372,-0.049l-0.373,-0.049l-0.374,-0.047l-0.374,-0.047l-0.376,-0.046l-0.377,-0.046l-0.377,-0.044l-0.379,-0.044l-0.379,-0.043l-0.38,-0.042l-0.381,-0.041l-0.382,-0.04l-0.383,-0.04l-0.384,-0.039l-0.384,-0.038l-0.386,-0.037l-0.386,-0.036l-0.387,-0.036l-0.387,-0.034l-0.389,-0.034l-0.389,-0.033l-0.39,-0.032l-0.391,-0.032l-0.392,-0.03l-0.392,-0.03l-0.393,-0.029l-0.394,-0.028l-0.395,-0.027l-0.395,-0.026l-0.396,-0.026l-0.396,-0.024l-0.398,-0.024l-0.398,-0.023l-0.399,-0.022l-0.399,-0.021l-0.4,-0.02l-0.401,-0.019l-0.401,-0.019l-0.402,-0.017l-0.403,-0.017l-0.403,-0.016l-0.404,-0.015l-0.404,-0.014l-0.405,-0.013l-0.405,-0.012l-0.407,-0.012l-0.406,-0.01l-0.408,-0.01l-0.407,-0.008l-0.409,-0.008l-0.409,-0.007l-0.409,-0.006l-0.41,-0.005l-0.41,-0.004l-0.411,-0.003l-0.412,-0.003l-0.411,-0.001l-0.413,-0.001l-0.416,0.001Z" style="fill:#fff;"/><path d="M134.27,28.879l0.24,0.006l0.238,0.01l0.238,0.013l0.238,0.016l0.236,0.02l0.235,0.023l0.235,0.027l0.233,0.031l0.233,0.034l0.231,0.038l0.224,0.04l0.121,0.024l0.115,0.023l0.114,0.024l0.114,0.025l0.114,0.026l0.113,0.027l0.113,0.028l0.113,0.029l0.112,0.03l0.112,0.031l0.112,0.032l0.112,0.032l0.111,0.034l0.111,0.035l0.11,0.036l0.11,0.037l0.11,0.038l0.109,0.039l0.109,0.04l0.108,0.04l0.108,0.042l0.108,0.043l0.107,0.044l0.107,0.045l0.107,0.046l0.105,0.048l0.106,0.048l0.105,0.049l0.104,0.05l0.104,0.051l0.104,0.052l0.103,0.054l0.102,0.054l0.102,0.056l0.102,0.056l0.101,0.058l0.104,0.06l0.103,0.062l0.102,0.062l0.102,0.064l0.101,0.065l0.101,0.066l0.099,0.066l0.1,0.068l0.098,0.069l0.098,0.07l0.097,0.07l0.096,0.072l0.096,0.073l0.095,0.073l0.094,0.075l0.094,0.075l0.093,0.076l0.092,0.078l0.091,0.078l0.091,0.079l0.09,0.08l0.089,0.08l0.089,0.082l0.088,0.082l0.087,0.084l0.087,0.084l0.085,0.085l0.085,0.086l0.085,0.086l0.083,0.088l0.083,0.088l0.082,0.089l0.082,0.09l0.081,0.09l0.08,0.091l0.079,0.092l0.079,0.093l0.078,0.094l0.077,0.094l0.077,0.095l0.076,0.096l0.075,0.096l0.074,0.098l0.074,0.098l0.073,0.098l0.073,0.099l0.072,0.1l0.071,0.101l0.07,0.101l0.073,0.107l0.134,0.201l0.135,0.209l0.133,0.211l0.129,0.214l0.127,0.217l0.125,0.219l0.122,0.221l0.12,0.224l0.117,0.227l0.114,0.229l0.112,0.231l0.11,0.233l0.107,0.237l0.105,0.238l0.103,0.241l0.1,0.243l0.098,0.245l0.096,0.247l0.093,0.25l0.091,0.252l0.089,0.255l0.087,0.256l0.084,0.259l0.082,0.261l0.08,0.263l0.078,0.266l0.076,0.267l0.073,0.27l0.071,0.272l0.07,0.274l0.067,0.277l0.065,0.278l0.062,0.281l0.061,0.282l0.059,0.285l0.056,0.287l0.054,0.289l0.053,0.291l0.05,0.293l0.048,0.295l0.046,0.297l0.044,0.3l0.042,0.301l0.04,0.303l0.038,0.306l0.036,0.307l0.033,0.309l0.032,0.312l0.03,0.313l0.027,0.316l0.026,0.317l0.024,0.319l0.021,0.322l0.019,0.323l0.018,0.325l0.015,0.327l0.014,0.329l0.011,0.331l0.009,0.333l0.007,0.335l0.006,0.336l0.003,0.339l0.001,0.34l-0.001,0.342l-0.003,0.344l-0.005,0.346l-0.007,0.348l-0.009,0.349l-0.011,0.352l-0.014,0.353l-0.015,0.354l-0.017,0.357l-0.02,0.358l-0.021,0.36l-0.024,0.362l-0.025,0.364l-0.028,0.365l-0.03,0.367l-0.031,0.369l-0.034,0.37l-0.036,0.372l-0.038,0.374l-0.04,0.375l-0.043,0.377l-0.044,0.379l-0.046,0.38l-0.049,0.382l-0.051,0.383l-0.052,0.385l-0.055,0.387l-0.057,0.388l-0.059,0.389l-0.061,0.391l-0.064,0.393l-0.065,0.394l-0.068,0.396l-0.07,0.397l-0.072,0.398l-0.074,0.401l-0.076,0.401l-0.078,0.403l-0.081,0.404l-0.082,0.405l-0.065,0.31l-0.065,0.309l-0.067,0.31l-0.068,0.311l-0.07,0.312l-0.071,0.312l-0.072,0.314l-0.073,0.313l-0.075,0.315l-0.076,0.315l-0.078,0.316l-0.079,0.317l-0.08,0.317l-0.081,0.318l-0.082,0.319l-0.084,0.319l-0.085,0.32l-0.087,0.321l-0.087,0.321l-0.089,0.322l-0.09,0.322l-0.092,0.324l-0.093,0.323l-0.093,0.325l-0.096,0.325l-0.096,0.326l-0.098,0.326l-0.098,0.327l-0.1,0.327l-0.102,0.328l-0.102,0.329l-0.104,0.329l-0.105,0.329l-0.106,0.331l-0.107,0.33l-0.109,0.332l-0.109,0.332l-0.111,0.332l-0.112,0.333l-0.114,0.333l-0.114,0.334l-0.116,0.334l-0.116,0.335l-0.118,0.336l-0.119,0.336l-0.121,0.336l-0.121,0.337l-0.122,0.337l-0.124,0.338l-0.125,0.338l-0.126,0.338l-0.127,0.339l-0.128,0.34l-0.129,0.339l-0.131,0.341l-0.131,0.34l-0.133,0.341l-0.134,0.342l-0.135,0.342l-0.136,0.342l-0.137,0.342l-0.138,0.343l-0.139,0.343l-0.14,0.344l-0.142,0.344l-0.142,0.344l-0.144,0.345l-0.144,0.345l-0.146,0.345l-0.147,0.345l-0.148,0.346l-0.148,0.346l-0.15,0.347l-0.151,0.346l-0.152,0.347l-0.153,0.347l-0.154,0.348l-0.156,0.347l-0.156,0.348l-0.157,0.349l-0.158,0.348l-0.159,0.349l-0.16,0.348l-0.162,0.349l-0.162,0.35l-0.163,0.349l-0.164,0.349l-0.165,0.35l-0.166,0.35l-0.168,0.35l-0.168,0.35l-0.169,0.351l-0.17,0.35l-0.171,0.351l-0.172,0.351l-0.173,0.35l-0.174,0.351l-0.175,0.352l-0.176,0.351l-0.177,0.351l-0.177,0.351l-0.179,0.352l-0.18,0.351l-0.18,0.352l-0.182,0.351l-0.182,0.352l-0.183,0.352l-0.185,0.351l-0.185,0.352l-0.186,0.352l-0.187,0.351l-0.188,0.352l-0.189,0.352l-0.189,0.351l-0.191,0.352l-0.191,0.352l-0.193,0.351l-0.193,0.352l-0.194,0.351l-0.195,0.352l-0.196,0.351l-0.196,0.352l-0.198,0.351l-0.198,0.351l-0.2,0.351l-0.2,0.351l-0.201,0.351l-0.202,0.351l-0.414,0.715l-0.417,0.714l-0.419,0.711l-0.42,0.708l-0.422,0.706l-0.423,0.701l-0.214,0.351l-0.213,0.35l-0.213,0.348l-0.214,0.348l-0.215,0.347l-0.214,0.346l-0.216,0.346l-0.215,0.344l-0.216,0.344l-0.217,0.343l-0.216,0.343l-0.218,0.341l-0.217,0.34l-0.218,0.34l-0.219,0.339l-0.218,0.338l-0.219,0.337l-0.22,0.336l-0.22,0.335l-0.22,0.335l-0.221,0.333l-0.221,0.333l-0.221,0.332l-0.222,0.33l-0.222,0.33l-0.222,0.329l-0.223,0.328l-0.223,0.327l-0.223,0.326l-0.224,0.325l-0.224,0.324l-0.224,0.323l-0.225,0.322l-0.225,0.321l-0.226,0.32l-0.225,0.319l-0.226,0.318l-0.227,0.317l-0.226,0.316l-0.227,0.315l-0.227,0.314l-0.228,0.312l-0.228,0.312l-0.228,0.311l-0.228,0.309l-0.229,0.308l-0.228,0.308l-0.23,0.306l-0.229,0.305l-0.23,0.304l-0.23,0.302l-0.23,0.302l-0.231,0.3l-0.23,0.3l-0.231,0.298l-0.232,0.297l-0.231,0.295l-0.232,0.295l-0.232,0.293l-0.232,0.292l-0.232,0.291l-0.233,0.29l-0.233,0.288l-0.233,0.287l-0.233,0.286l-0.234,0.285l-0.234,0.283l-0.234,0.283l-0.234,0.28l-0.234,0.28l-0.235,0.278l-0.235,0.277l-0.235,0.276l-0.235,0.274l-0.235,0.273l-0.236,0.272l-0.236,0.27l-0.236,0.269l-0.236,0.268l-0.236,0.266l-0.237,0.265l-0.236,0.263l-0.237,0.263l-0.237,0.26l-0.237,0.26l-0.238,0.257l-0.237,0.257l-0.238,0.255l-0.238,0.253l-0.238,0.253l-0.238,0.25l-0.238,0.25l-0.238,0.247l-0.239,0.247l-0.238,0.244l-0.239,0.244l-0.239,0.242l-0.239,0.24l-0.24,0.239l-0.239,0.237l-0.239,0.236l-0.24,0.234l-0.24,0.232l-0.24,0.231l-0.24,0.23l-0.24,0.228l-0.24,0.226l-0.24,0.225l-0.241,0.223l-0.24,0.222l-0.241,0.22l-0.241,0.218l-0.24,0.217l-0.241,0.215l-0.241,0.213l-0.242,0.213l-0.304,0.264l-0.304,0.262l-0.304,0.259l-0.303,0.257l-0.304,0.254l-0.303,0.252l-0.304,0.249l-0.303,0.247l-0.303,0.244l-0.303,0.241l-0.303,0.239l-0.302,0.236l-0.302,0.234l-0.302,0.231l-0.302,0.228l-0.302,0.226l-0.301,0.223l-0.301,0.221l-0.301,0.218l-0.3,0.216l-0.3,0.213l-0.3,0.21l-0.299,0.208l-0.3,0.205l-0.298,0.202l-0.299,0.2l-0.298,0.198l-0.297,0.194l-0.297,0.193l-0.297,0.189l-0.296,0.187l-0.296,0.184l-0.295,0.182l-0.295,0.179l-0.295,0.176l-0.294,0.174l-0.293,0.171l-0.293,0.169l-0.293,0.166l-0.291,0.163l-0.292,0.16l-0.29,0.158l-0.291,0.156l-0.289,0.152l-0.289,0.15l-0.289,0.148l-0.288,0.144l-0.287,0.142l-0.286,0.14l-0.286,0.136l-0.286,0.134l-0.284,0.132l-0.284,0.128l-0.284,0.126l-0.282,0.124l-0.282,0.12l-0.282,0.118l-0.28,0.115l-0.28,0.113l-0.279,0.109l-0.279,0.107l-0.278,0.105l-0.277,0.101l-0.276,0.099l-0.275,0.096l-0.275,0.093l-0.274,0.091l-0.273,0.088l-0.273,0.085l-0.272,0.082l-0.271,0.079l-0.27,0.077l-0.269,0.073l-0.269,0.071l-0.267,0.068l-0.267,0.066l-0.266,0.062l-0.266,0.06l-0.264,0.056l-0.264,0.054l-0.263,0.051l-0.262,0.048l-0.261,0.045l-0.26,0.042l-0.26,0.039l-0.258,0.035l-0.258,0.033l-0.257,0.03l-0.256,0.027l-0.255,0.024l-0.254,0.021l-0.254,0.017l-0.252,0.015l-0.252,0.011l-0.251,0.008l-0.249,0.005l-0.249,0.001l-0.248,-0.001l-0.247,-0.006l-0.246,-0.008l-0.245,-0.012l-0.244,-0.015l-0.243,-0.019l-0.242,-0.022l-0.241,-0.025l-0.24,-0.029l-0.239,-0.033l-0.231,-0.036l-0.125,-0.02l-0.118,-0.021l-0.118,-0.021l-0.117,-0.022l-0.117,-0.024l-0.117,-0.024l-0.117,-0.025l-0.116,-0.026l-0.116,-0.027l-0.116,-0.028l-0.115,-0.029l-0.115,-0.03l-0.114,-0.031l-0.115,-0.032l-0.113,-0.033l-0.114,-0.033l-0.113,-0.035l-0.113,-0.036l-0.112,-0.037l-0.112,-0.038l-0.112,-0.038l-0.111,-0.04l-0.111,-0.041l-0.11,-0.042l-0.11,-0.043l-0.109,-0.043l-0.109,-0.045l-0.109,-0.046l-0.108,-0.047l-0.108,-0.048l-0.107,-0.049l-0.106,-0.05l-0.107,-0.051l-0.105,-0.052l-0.105,-0.054l-0.105,-0.054l-0.104,-0.055l-0.103,-0.056l-0.103,-0.057l-0.103,-0.059l-0.099,-0.058l-0.098,-0.058l-0.097,-0.059l-0.097,-0.061l-0.097,-0.061l-0.095,-0.062l-0.095,-0.064l-0.095,-0.064l-0.094,-0.065l-0.093,-0.065l-0.093,-0.067l-0.092,-0.068l-0.091,-0.068l-0.091,-0.069l-0.09,-0.071l-0.089,-0.071l-0.089,-0.071l-0.088,-0.073l-0.088,-0.073l-0.087,-0.075l-0.086,-0.075l-0.085,-0.076l-0.086,-0.076l-0.084,-0.078l-0.084,-0.078l-0.083,-0.079l-0.082,-0.08l-0.086,-0.085l-0.157,-0.158l-0.159,-0.166l-0.156,-0.169l-0.154,-0.172l-0.151,-0.174l-0.149,-0.177l-0.146,-0.18l-0.144,-0.183l-0.141,-0.185l-0.138,-0.187l-0.136,-0.191l-0.134,-0.192l-0.131,-0.195l-0.128,-0.198l-0.127,-0.199l-0.124,-0.203l-0.121,-0.204l-0.119,-0.207l-0.117,-0.209l-0.115,-0.211l-0.112,-0.213l-0.11,-0.216l-0.107,-0.218l-0.106,-0.22l-0.103,-0.222l-0.101,-0.224l-0.099,-0.227l-0.096,-0.228l-0.095,-0.231l-0.092,-0.232l-0.09,-0.235l-0.088,-0.237l-0.086,-0.238l-0.084,-0.241l-0.082,-0.243l-0.08,-0.245l-0.077,-0.246l-0.076,-0.249l-0.074,-0.251l-0.071,-0.253l-0.07,-0.254l-0.067,-0.257l-0.066,-0.258l-0.064,-0.261l-0.061,-0.262l-0.06,-0.264l-0.058,-0.267l-0.056,-0.268l-0.053,-0.27l-0.052,-0.272l-0.05,-0.273l-0.048,-0.276l-0.047,-0.278l-0.044,-0.279l-0.042,-0.281l-0.04,-0.283l-0.039,-0.285l-0.037,-0.287l-0.034,-0.289l-0.033,-0.29l-0.031,-0.292l-0.029,-0.294l-0.027,-0.296l-0.025,-0.298l-0.024,-0.299l-0.021,-0.301l-0.02,-0.303l-0.017,-0.305l-0.016,-0.307l-0.014,-0.308l-0.012,-0.31l-0.01,-0.311l-0.008,-0.314l-0.007,-0.315l-0.004,-0.317l-0.003,-0.318l0,-0.32l0.001,-0.322l0.003,-0.324l0.005,-0.325l0.007,-0.327l0.008,-0.329l0.011,-0.33l0.012,-0.332l0.015,-0.333l0.016,-0.335l0.018,-0.337l0.021,-0.338l0.022,-0.34l0.024,-0.341l0.025,-0.344l0.028,-0.344l0.03,-0.346l0.032,-0.348l0.033,-0.349l0.035,-0.351l0.038,-0.352l0.039,-0.354l0.041,-0.355l0.044,-0.357l0.045,-0.358l0.047,-0.36l0.049,-0.361l0.051,-0.363l0.052,-0.364l0.055,-0.365l0.057,-0.367l0.059,-0.369l0.06,-0.369l0.063,-0.371l0.065,-0.373l0.066,-0.374l0.069,-0.375l0.07,-0.376l0.062,-0.32l0.062,-0.32l0.064,-0.322l0.066,-0.322l0.066,-0.323l0.068,-0.324l0.07,-0.325l0.071,-0.326l0.072,-0.327l0.073,-0.327l0.075,-0.329l0.077,-0.329l0.077,-0.331l0.079,-0.331l0.081,-0.332l0.082,-0.333l0.083,-0.334l0.084,-0.335l0.086,-0.335l0.087,-0.336l0.088,-0.338l0.09,-0.337l0.091,-0.339l0.092,-0.34l0.094,-0.34l0.095,-0.341l0.096,-0.342l0.098,-0.343l0.099,-0.343l0.1,-0.344l0.102,-0.345l0.103,-0.345l0.104,-0.347l0.105,-0.347l0.107,-0.347l0.108,-0.349l0.11,-0.349l0.11,-0.349l0.112,-0.351l0.113,-0.351l0.115,-0.351l0.115,-0.353l0.117,-0.353l0.119,-0.353l0.119,-0.354l0.121,-0.355l0.122,-0.356l0.123,-0.356l0.125,-0.356l0.125,-0.357l0.127,-0.358l0.129,-0.358l0.129,-0.359l0.131,-0.359l0.132,-0.36l0.133,-0.36l0.135,-0.361l0.135,-0.361l0.137,-0.362l0.138,-0.363l0.14,-0.362l0.14,-0.364l0.142,-0.363l0.143,-0.364l0.144,-0.365l0.145,-0.365l0.147,-0.365l0.148,-0.366l0.149,-0.366l0.15,-0.367l0.151,-0.367l0.153,-0.367l0.153,-0.368l0.155,-0.368l0.156,-0.368l0.158,-0.369l0.158,-0.369l0.16,-0.37l0.161,-0.369l0.162,-0.37l0.163,-0.371l0.164,-0.37l0.165,-0.371l0.167,-0.371l0.168,-0.371l0.169,-0.372l0.17,-0.372l0.171,-0.372l0.172,-0.372l0.174,-0.373l0.174,-0.372l0.176,-0.373l0.177,-0.373l0.178,-0.374l0.179,-0.373l0.181,-0.373l0.181,-0.374l0.182,-0.374l0.184,-0.374l0.185,-0.374l0.186,-0.374l0.187,-0.374l0.188,-0.375l0.189,-0.374l0.19,-0.375l0.192,-0.374l0.192,-0.375l0.194,-0.374l0.194,-0.375l0.196,-0.375l0.197,-0.374l0.198,-0.375l0.199,-0.375l0.2,-0.374l0.201,-0.375l0.202,-0.375l0.204,-0.374l0.204,-0.375l0.206,-0.374l0.206,-0.375l0.208,-0.374l0.208,-0.374l0.21,-0.374l0.211,-0.374l0.212,-0.374l0.212,-0.374l0.214,-0.374l0.215,-0.373l0.213,-0.369l0.214,-0.368l0.215,-0.368l0.215,-0.367l0.216,-0.365l0.217,-0.365l0.217,-0.364l0.217,-0.363l0.218,-0.362l0.219,-0.362l0.219,-0.36l0.22,-0.359l0.22,-0.358l0.221,-0.358l0.221,-0.356l0.222,-0.356l0.222,-0.354l0.223,-0.354l0.223,-0.352l0.224,-0.352l0.224,-0.35l0.225,-0.35l0.225,-0.349l0.226,-0.347l0.226,-0.347l0.227,-0.345l0.226,-0.345l0.228,-0.343l0.228,-0.342l0.228,-0.342l0.229,-0.34l0.229,-0.339l0.229,-0.338l0.23,-0.338l0.231,-0.336l0.23,-0.335l0.232,-0.334l0.231,-0.332l0.232,-0.332l0.232,-0.331l0.233,-0.329l0.233,-0.328l0.233,-0.328l0.234,-0.326l0.234,-0.325l0.234,-0.324l0.234,-0.323l0.235,-0.321l0.236,-0.321l0.235,-0.319l0.236,-0.318l0.236,-0.317l0.237,-0.316l0.237,-0.314l0.237,-0.314l0.237,-0.312l0.238,-0.311l0.238,-0.31l0.238,-0.309l0.238,-0.307l0.239,-0.306l0.239,-0.305l0.239,-0.304l0.239,-0.303l0.24,-0.301l0.239,-0.3l0.24,-0.299l0.241,-0.297l0.24,-0.297l0.241,-0.295l0.24,-0.294l0.241,-0.292l0.242,-0.291l0.241,-0.29l0.242,-0.289l0.241,-0.287l0.242,-0.286l0.242,-0.285l0.242,-0.283l0.242,-0.282l0.243,-0.281l0.242,-0.279l0.243,-0.279l0.243,-0.276l0.243,-0.276l0.243,-0.274l0.243,-0.272l0.243,-0.272l0.244,-0.27l0.243,-0.268l0.244,-0.267l0.243,-0.266l0.244,-0.265l0.243,-0.263l0.244,-0.261l0.244,-0.26l0.244,-0.259l0.244,-0.257l0.244,-0.256l0.244,-0.255l0.244,-0.253l0.244,-0.252l0.244,-0.25l0.244,-0.249l0.244,-0.247l0.245,-0.246l0.244,-0.244l0.244,-0.243l0.244,-0.241l0.244,-0.24l0.244,-0.239l0.244,-0.236l0.244,-0.236l0.244,-0.234l0.244,-0.232l0.244,-0.231l0.244,-0.229l0.244,-0.228l0.244,-0.227l0.244,-0.224l0.243,-0.223l0.244,-0.222l0.243,-0.22l0.244,-0.219l0.243,-0.217l0.243,-0.215l0.244,-0.214l0.243,-0.213l0.292,-0.253l0.293,-0.251l0.293,-0.25l0.292,-0.246l0.293,-0.245l0.292,-0.242l0.292,-0.24l0.292,-0.237l0.292,-0.235l0.291,-0.233l0.291,-0.23l0.291,-0.228l0.291,-0.226l0.29,-0.223l0.29,-0.221l0.29,-0.218l0.29,-0.216l0.289,-0.214l0.289,-0.211l0.288,-0.209l0.289,-0.206l0.288,-0.204l0.287,-0.202l0.287,-0.199l0.287,-0.197l0.287,-0.194l0.286,-0.192l0.285,-0.19l0.285,-0.187l0.285,-0.184l0.284,-0.182l0.284,-0.18l0.284,-0.177l0.283,-0.175l0.282,-0.173l0.282,-0.169l0.282,-0.168l0.281,-0.165l0.28,-0.162l0.28,-0.16l0.28,-0.158l0.279,-0.155l0.278,-0.153l0.278,-0.15l0.277,-0.147l0.277,-0.145l0.276,-0.143l0.276,-0.14l0.275,-0.137l0.274,-0.135l0.274,-0.132l0.273,-0.13l0.273,-0.128l0.271,-0.124l0.272,-0.123l0.271,-0.119l0.27,-0.117l0.269,-0.115l0.269,-0.112l0.268,-0.109l0.268,-0.107l0.266,-0.104l0.267,-0.101l0.265,-0.099l0.265,-0.096l0.264,-0.094l0.264,-0.09l0.263,-0.089l0.262,-0.085l0.261,-0.083l0.261,-0.08l0.26,-0.078l0.26,-0.074l0.258,-0.072l0.258,-0.069l0.258,-0.067l0.256,-0.063l0.256,-0.061l0.255,-0.058l0.255,-0.055l0.254,-0.053l0.253,-0.049l0.252,-0.047l0.252,-0.044l0.251,-0.04l0.25,-0.038l0.25,-0.035l0.248,-0.032l0.248,-0.029l0.248,-0.026l0.246,-0.022l0.246,-0.02l0.245,-0.017l0.245,-0.013l0.243,-0.01l0.243,-0.007l0.242,-0.004l0.241,-0.001l0.241,0.003Zm-0.425,6.379l-0.157,0.003l-0.159,0.004l-0.161,0.007l-0.163,0.009l-0.165,0.011l-0.168,0.014l-0.169,0.015l-0.172,0.018l-0.174,0.02l-0.176,0.023l-0.178,0.025l-0.18,0.027l-0.182,0.03l-0.184,0.032l-0.186,0.034l-0.188,0.037l-0.19,0.039l-0.192,0.042l-0.193,0.044l-0.196,0.046l-0.197,0.049l-0.199,0.051l-0.2,0.054l-0.203,0.056l-0.204,0.059l-0.206,0.061l-0.207,0.064l-0.209,0.066l-0.211,0.069l-0.212,0.071l-0.214,0.074l-0.215,0.076l-0.217,0.079l-0.218,0.081l-0.22,0.084l-0.221,0.086l-0.223,0.089l-0.224,0.091l-0.225,0.094l-0.227,0.096l-0.228,0.099l-0.229,0.101l-0.231,0.104l-0.232,0.107l-0.233,0.109l-0.234,0.111l-0.236,0.114l-0.237,0.116l-0.237,0.119l-0.239,0.122l-0.241,0.123l-0.241,0.127l-0.242,0.129l-0.243,0.131l-0.245,0.134l-0.245,0.137l-0.247,0.138l-0.247,0.142l-0.248,0.144l-0.25,0.146l-0.25,0.149l-0.251,0.151l-0.252,0.154l-0.253,0.156l-0.254,0.159l-0.254,0.161l-0.256,0.164l-0.256,0.166l-0.257,0.168l-0.257,0.171l-0.259,0.174l-0.259,0.176l-0.26,0.178l-0.26,0.181l-0.262,0.183l-0.262,0.185l-0.262,0.189l-0.263,0.19l-0.264,0.193l-0.265,0.195l-0.265,0.198l-0.265,0.2l-0.266,0.202l-0.267,0.205l-0.267,0.208l-0.268,0.209l-0.268,0.212l-0.268,0.215l-0.269,0.216l-0.27,0.22l-0.269,0.221l-0.271,0.224l-0.27,0.226l-0.271,0.229l-0.272,0.231l-0.271,0.233l-0.273,0.237l-0.226,0.197l-0.226,0.199l-0.227,0.201l-0.227,0.202l-0.228,0.204l-0.227,0.206l-0.228,0.207l-0.228,0.209l-0.228,0.211l-0.229,0.212l-0.229,0.214l-0.228,0.215l-0.23,0.217l-0.229,0.218l-0.229,0.22l-0.23,0.222l-0.23,0.223l-0.23,0.224l-0.23,0.227l-0.23,0.227l-0.231,0.229l-0.23,0.231l-0.231,0.232l-0.231,0.234l-0.231,0.236l-0.231,0.236l-0.231,0.239l-0.231,0.239l-0.231,0.242l-0.232,0.242l-0.231,0.244l-0.232,0.246l-0.231,0.247l-0.232,0.249l-0.231,0.25l-0.232,0.251l-0.232,0.253l-0.232,0.254l-0.231,0.256l-0.232,0.257l-0.232,0.258l-0.231,0.26l-0.232,0.261l-0.232,0.263l-0.231,0.264l-0.232,0.265l-0.232,0.267l-0.231,0.268l-0.232,0.27l-0.231,0.27l-0.231,0.273l-0.231,0.273l-0.232,0.275l-0.231,0.276l-0.231,0.277l-0.231,0.279l-0.23,0.28l-0.231,0.282l-0.23,0.282l-0.231,0.284l-0.23,0.285l-0.23,0.287l-0.23,0.288l-0.23,0.289l-0.23,0.29l-0.229,0.292l-0.229,0.292l-0.229,0.294l-0.229,0.296l-0.229,0.296l-0.229,0.298l-0.228,0.299l-0.228,0.3l-0.228,0.301l-0.228,0.302l-0.227,0.304l-0.227,0.305l-0.227,0.306l-0.227,0.307l-0.226,0.309l-0.226,0.309l-0.226,0.311l-0.226,0.312l-0.225,0.312l-0.225,0.315l-0.225,0.315l-0.224,0.316l-0.224,0.318l-0.224,0.318l-0.223,0.32l-0.223,0.32l-0.223,0.322l-0.223,0.323l-0.222,0.324l-0.221,0.325l-0.222,0.326l-0.221,0.328l-0.22,0.328l-0.221,0.329l-0.219,0.33l-0.22,0.332l-0.219,0.332l-0.218,0.334l-0.219,0.334l-0.217,0.335l-0.218,0.337l-0.217,0.337l-0.216,0.339l-0.216,0.339l-0.216,0.341l-0.215,0.341l-0.215,0.342l-0.214,0.344l-0.214,0.344l-0.213,0.345l-0.212,0.346l-0.213,0.347l-0.211,0.348l-0.212,0.349l-0.21,0.35l-0.211,0.351l-0.209,0.352l-0.209,0.352l-0.209,0.354l-0.208,0.354l-0.208,0.355l-0.206,0.356l-0.207,0.358l-0.208,0.361l-0.207,0.361l-0.205,0.361l-0.205,0.362l-0.204,0.361l-0.202,0.362l-0.202,0.361l-0.2,0.362l-0.2,0.362l-0.199,0.361l-0.197,0.362l-0.196,0.362l-0.196,0.362l-0.194,0.362l-0.194,0.362l-0.192,0.362l-0.191,0.362l-0.19,0.362l-0.189,0.362l-0.188,0.362l-0.187,0.361l-0.186,0.362l-0.185,0.362l-0.184,0.361l-0.182,0.362l-0.182,0.361l-0.18,0.362l-0.18,0.361l-0.178,0.361l-0.177,0.361l-0.176,0.36l-0.175,0.361l-0.174,0.36l-0.173,0.361l-0.172,0.36l-0.171,0.359l-0.169,0.36l-0.168,0.359l-0.168,0.359l-0.166,0.359l-0.165,0.359l-0.164,0.358l-0.163,0.358l-0.161,0.358l-0.161,0.358l-0.159,0.357l-0.158,0.357l-0.157,0.357l-0.156,0.356l-0.155,0.356l-0.154,0.355l-0.152,0.355l-0.152,0.355l-0.15,0.355l-0.149,0.354l-0.148,0.353l-0.146,0.353l-0.146,0.353l-0.144,0.352l-0.143,0.352l-0.142,0.352l-0.141,0.351l-0.14,0.35l-0.138,0.35l-0.137,0.35l-0.136,0.349l-0.135,0.348l-0.134,0.348l-0.132,0.347l-0.131,0.347l-0.13,0.346l-0.129,0.346l-0.128,0.345l-0.126,0.345l-0.125,0.344l-0.124,0.343l-0.123,0.343l-0.121,0.342l-0.12,0.341l-0.119,0.341l-0.118,0.34l-0.117,0.339l-0.115,0.339l-0.114,0.338l-0.113,0.337l-0.111,0.337l-0.111,0.335l-0.109,0.336l-0.107,0.334l-0.107,0.333l-0.105,0.333l-0.104,0.332l-0.103,0.331l-0.101,0.331l-0.101,0.329l-0.098,0.329l-0.098,0.328l-0.096,0.327l-0.096,0.326l-0.093,0.326l-0.093,0.324l-0.091,0.324l-0.09,0.322l-0.088,0.322l-0.088,0.321l-0.086,0.32l-0.084,0.319l-0.084,0.318l-0.082,0.317l-0.081,0.316l-0.079,0.315l-0.078,0.314l-0.077,0.313l-0.076,0.312l-0.074,0.311l-0.073,0.31l-0.071,0.309l-0.07,0.307l-0.069,0.307l-0.068,0.306l-0.066,0.304l-0.065,0.303l-0.063,0.303l-0.062,0.301l-0.061,0.3l-0.06,0.298l-0.058,0.298l-0.057,0.296l-0.065,0.349l-0.063,0.347l-0.062,0.346l-0.06,0.344l-0.058,0.343l-0.056,0.341l-0.054,0.339l-0.052,0.338l-0.05,0.336l-0.049,0.335l-0.047,0.332l-0.045,0.332l-0.043,0.329l-0.041,0.328l-0.039,0.326l-0.038,0.324l-0.036,0.323l-0.034,0.321l-0.032,0.319l-0.031,0.317l-0.028,0.315l-0.027,0.314l-0.025,0.312l-0.024,0.31l-0.021,0.308l-0.02,0.306l-0.018,0.304l-0.017,0.303l-0.014,0.3l-0.013,0.299l-0.011,0.296l-0.01,0.295l-0.008,0.293l-0.006,0.29l-0.004,0.289l-0.003,0.287l-0.001,0.284l0.001,0.283l0.002,0.28l0.004,0.279l0.006,0.276l0.007,0.274l0.009,0.272l0.01,0.27l0.012,0.268l0.014,0.265l0.015,0.263l0.017,0.261l0.018,0.259l0.02,0.257l0.022,0.254l0.023,0.252l0.025,0.25l0.026,0.247l0.027,0.246l0.03,0.242l0.03,0.241l0.032,0.238l0.034,0.235l0.035,0.233l0.037,0.231l0.038,0.229l0.039,0.225l0.041,0.224l0.042,0.221l0.044,0.218l0.044,0.216l0.047,0.213l0.047,0.211l0.049,0.208l0.05,0.205l0.052,0.203l0.053,0.2l0.054,0.198l0.055,0.195l0.056,0.192l0.058,0.19l0.059,0.187l0.06,0.184l0.061,0.181l0.062,0.179l0.064,0.176l0.064,0.173l0.065,0.17l0.067,0.168l0.067,0.165l0.069,0.162l0.069,0.159l0.071,0.156l0.071,0.153l0.072,0.151l0.073,0.147l0.074,0.145l0.074,0.142l0.076,0.139l0.076,0.136l0.077,0.134l0.077,0.13l0.078,0.128l0.079,0.124l0.08,0.122l0.079,0.119l0.081,0.116l0.081,0.113l0.082,0.111l0.082,0.107l0.082,0.105l0.083,0.102l0.083,0.1l0.084,0.096l0.084,0.094l0.084,0.091l0.085,0.089l0.09,0.09l0.038,0.038l0.042,0.041l0.043,0.041l0.043,0.04l0.043,0.039l0.043,0.039l0.043,0.038l0.043,0.037l0.043,0.037l0.043,0.037l0.044,0.035l0.043,0.035l0.044,0.035l0.043,0.034l0.044,0.033l0.044,0.033l0.043,0.032l0.044,0.032l0.044,0.031l0.044,0.03l0.044,0.03l0.044,0.029l0.045,0.029l0.044,0.028l0.044,0.028l0.045,0.027l0.045,0.027l0.044,0.026l0.047,0.026l0.047,0.026l0.047,0.026l0.048,0.026l0.048,0.025l0.049,0.024l0.049,0.025l0.05,0.023l0.05,0.024l0.051,0.023l0.052,0.023l0.052,0.023l0.052,0.022l0.053,0.022l0.054,0.021l0.054,0.022l0.055,0.02l0.055,0.021l0.056,0.02l0.056,0.019l0.057,0.019l0.058,0.019l0.058,0.019l0.059,0.018l0.059,0.018l0.06,0.017l0.061,0.017l0.061,0.016l0.061,0.016l0.063,0.016l0.063,0.015l0.063,0.015l0.064,0.014l0.065,0.014l0.066,0.014l0.066,0.013l0.066,0.013l0.068,0.012l0.067,0.012l0.063,0.01l0.145,0.022l0.141,0.02l0.143,0.017l0.146,0.016l0.149,0.013l0.151,0.012l0.153,0.009l0.156,0.008l0.158,0.005l0.16,0.003l0.163,0.002l0.165,-0.001l0.168,-0.004l0.17,-0.005l0.172,-0.008l0.174,-0.01l0.177,-0.012l0.178,-0.015l0.181,-0.016l0.183,-0.02l0.185,-0.021l0.188,-0.024l0.189,-0.026l0.191,-0.029l0.194,-0.031l0.195,-0.034l0.197,-0.036l0.2,-0.039l0.201,-0.041l0.203,-0.043l0.205,-0.046l0.207,-0.048l0.209,-0.051l0.21,-0.054l0.212,-0.056l0.214,-0.059l0.216,-0.061l0.217,-0.064l0.219,-0.066l0.221,-0.069l0.222,-0.071l0.224,-0.074l0.225,-0.076l0.227,-0.08l0.229,-0.081l0.23,-0.085l0.231,-0.086l0.233,-0.09l0.234,-0.092l0.236,-0.095l0.237,-0.097l0.238,-0.1l0.24,-0.102l0.241,-0.105l0.242,-0.108l0.243,-0.11l0.245,-0.113l0.246,-0.116l0.247,-0.118l0.249,-0.121l0.249,-0.123l0.251,-0.126l0.251,-0.128l0.253,-0.132l0.254,-0.133l0.255,-0.137l0.256,-0.139l0.257,-0.141l0.258,-0.145l0.259,-0.147l0.259,-0.149l0.261,-0.152l0.262,-0.155l0.262,-0.157l0.263,-0.16l0.265,-0.162l0.265,-0.165l0.265,-0.168l0.267,-0.17l0.267,-0.173l0.268,-0.175l0.269,-0.178l0.27,-0.181l0.27,-0.183l0.271,-0.186l0.271,-0.189l0.273,-0.191l0.272,-0.193l0.274,-0.196l0.274,-0.199l0.274,-0.201l0.275,-0.204l0.276,-0.207l0.276,-0.209l0.277,-0.211l0.277,-0.214l0.277,-0.217l0.278,-0.219l0.278,-0.222l0.279,-0.225l0.279,-0.227l0.28,-0.229l0.28,-0.232l0.28,-0.235l0.28,-0.237l0.281,-0.24l0.281,-0.242l0.282,-0.245l0.221,-0.194l0.222,-0.197l0.222,-0.198l0.222,-0.199l0.222,-0.202l0.222,-0.203l0.223,-0.205l0.222,-0.207l0.223,-0.208l0.223,-0.21l0.223,-0.212l0.223,-0.213l0.223,-0.215l0.224,-0.217l0.223,-0.218l0.223,-0.22l0.224,-0.222l0.224,-0.223l0.223,-0.225l0.224,-0.226l0.224,-0.228l0.224,-0.23l0.223,-0.231l0.224,-0.233l0.224,-0.234l0.224,-0.236l0.224,-0.237l0.224,-0.239l0.224,-0.24l0.224,-0.242l0.224,-0.244l0.224,-0.245l0.224,-0.246l0.224,-0.248l0.224,-0.249l0.224,-0.251l0.224,-0.252l0.224,-0.254l0.224,-0.255l0.224,-0.257l0.223,-0.258l0.224,-0.259l0.224,-0.261l0.223,-0.262l0.224,-0.264l0.223,-0.265l0.223,-0.266l0.224,-0.268l0.223,-0.269l0.223,-0.27l0.223,-0.272l0.222,-0.273l0.223,-0.274l0.223,-0.276l0.222,-0.277l0.223,-0.278l0.222,-0.28l0.222,-0.281l0.222,-0.282l0.222,-0.283l0.221,-0.285l0.222,-0.285l0.221,-0.287l0.221,-0.289l0.221,-0.289l0.221,-0.291l0.221,-0.292l0.22,-0.293l0.221,-0.294l0.22,-0.295l0.22,-0.297l0.219,-0.298l0.22,-0.299l0.219,-0.3l0.219,-0.301l0.219,-0.302l0.219,-0.303l0.218,-0.305l0.218,-0.305l0.218,-0.307l0.218,-0.308l0.217,-0.308l0.217,-0.31l0.217,-0.311l0.217,-0.312l0.216,-0.313l0.216,-0.314l0.216,-0.315l0.216,-0.316l0.215,-0.317l0.215,-0.318l0.215,-0.319l0.214,-0.32l0.215,-0.321l0.213,-0.322l0.214,-0.323l0.213,-0.323l0.213,-0.325l0.213,-0.326l0.212,-0.326l0.212,-0.327l0.211,-0.329l0.212,-0.329l0.211,-0.33l0.21,-0.331l0.21,-0.332l0.21,-0.333l0.21,-0.333l0.209,-0.334l0.209,-0.336l0.208,-0.336l0.208,-0.336l0.208,-0.338l0.207,-0.338l0.207,-0.34l0.206,-0.338l0.412,-0.684l0.41,-0.685l0.409,-0.688l0.407,-0.691l0.405,-0.694l0.404,-0.698l0.195,-0.339l0.195,-0.34l0.194,-0.34l0.193,-0.34l0.192,-0.34l0.191,-0.341l0.191,-0.34l0.19,-0.34l0.189,-0.341l0.188,-0.34l0.187,-0.341l0.186,-0.34l0.185,-0.341l0.185,-0.34l0.184,-0.341l0.182,-0.34l0.182,-0.341l0.181,-0.34l0.18,-0.341l0.179,-0.34l0.179,-0.34l0.177,-0.341l0.177,-0.34l0.175,-0.34l0.175,-0.34l0.174,-0.34l0.172,-0.339l0.172,-0.34l0.171,-0.34l0.17,-0.339l0.169,-0.339l0.168,-0.34l0.167,-0.338l0.166,-0.339l0.166,-0.339l0.164,-0.338l0.163,-0.339l0.163,-0.338l0.161,-0.338l0.16,-0.337l0.16,-0.338l0.158,-0.337l0.157,-0.337l0.157,-0.337l0.155,-0.336l0.155,-0.337l0.153,-0.336l0.153,-0.335l0.151,-0.336l0.15,-0.335l0.15,-0.335l0.148,-0.334l0.147,-0.334l0.147,-0.334l0.145,-0.334l0.144,-0.333l0.143,-0.333l0.142,-0.332l0.141,-0.332l0.14,-0.332l0.139,-0.331l0.138,-0.331l0.137,-0.331l0.136,-0.33l0.134,-0.329l0.134,-0.33l0.132,-0.329l0.132,-0.328l0.13,-0.328l0.129,-0.327l0.128,-0.327l0.127,-0.327l0.126,-0.326l0.125,-0.325l0.124,-0.326l0.122,-0.324l0.122,-0.324l0.12,-0.323l0.119,-0.323l0.118,-0.323l0.117,-0.322l0.116,-0.321l0.115,-0.321l0.113,-0.32l0.113,-0.319l0.111,-0.319l0.11,-0.319l0.109,-0.317l0.107,-0.317l0.107,-0.317l0.105,-0.316l0.104,-0.315l0.103,-0.314l0.102,-0.314l0.101,-0.313l0.099,-0.313l0.098,-0.311l0.097,-0.312l0.096,-0.31l0.095,-0.31l0.093,-0.308l0.093,-0.309l0.091,-0.307l0.089,-0.307l0.089,-0.306l0.087,-0.305l0.086,-0.304l0.085,-0.304l0.084,-0.302l0.082,-0.302l0.081,-0.301l0.08,-0.301l0.079,-0.299l0.077,-0.299l0.076,-0.297l0.075,-0.297l0.073,-0.296l0.073,-0.295l0.071,-0.294l0.07,-0.294l0.068,-0.292l0.067,-0.292l0.066,-0.29l0.065,-0.29l0.063,-0.288l0.062,-0.288l0.061,-0.287l0.059,-0.285l0.077,-0.378l0.075,-0.376l0.073,-0.375l0.071,-0.373l0.069,-0.372l0.067,-0.37l0.064,-0.368l0.063,-0.366l0.06,-0.365l0.059,-0.363l0.057,-0.362l0.054,-0.36l0.053,-0.357l0.05,-0.357l0.049,-0.354l0.046,-0.353l0.045,-0.35l0.043,-0.349l0.04,-0.347l0.039,-0.345l0.037,-0.344l0.034,-0.341l0.033,-0.34l0.031,-0.337l0.029,-0.336l0.027,-0.333l0.025,-0.332l0.023,-0.33l0.022,-0.327l0.019,-0.326l0.018,-0.323l0.015,-0.322l0.014,-0.319l0.012,-0.317l0.01,-0.315l0.008,-0.313l0.006,-0.311l0.005,-0.309l0.003,-0.306l0,-0.304l-0.001,-0.302l-0.002,-0.3l-0.005,-0.297l-0.006,-0.295l-0.009,-0.293l-0.01,-0.29l-0.011,-0.289l-0.014,-0.285l-0.015,-0.284l-0.017,-0.28l-0.018,-0.279l-0.021,-0.276l-0.022,-0.274l-0.024,-0.271l-0.025,-0.268l-0.027,-0.266l-0.029,-0.264l-0.03,-0.261l-0.032,-0.258l-0.034,-0.256l-0.035,-0.253l-0.037,-0.251l-0.038,-0.247l-0.04,-0.246l-0.042,-0.242l-0.043,-0.24l-0.045,-0.237l-0.046,-0.234l-0.047,-0.231l-0.049,-0.229l-0.051,-0.226l-0.052,-0.223l-0.053,-0.22l-0.055,-0.217l-0.056,-0.214l-0.058,-0.212l-0.059,-0.208l-0.06,-0.206l-0.061,-0.202l-0.063,-0.2l-0.064,-0.196l-0.066,-0.194l-0.066,-0.19l-0.068,-0.187l-0.069,-0.185l-0.07,-0.181l-0.071,-0.178l-0.072,-0.175l-0.073,-0.172l-0.074,-0.168l-0.076,-0.166l-0.076,-0.162l-0.077,-0.159l-0.078,-0.156l-0.079,-0.153l-0.08,-0.149l-0.08,-0.147l-0.082,-0.143l-0.082,-0.14l-0.083,-0.136l-0.083,-0.134l-0.085,-0.13l-0.088,-0.132l-0.039,-0.057l-0.043,-0.062l-0.043,-0.061l-0.043,-0.06l-0.043,-0.059l-0.043,-0.058l-0.044,-0.058l-0.043,-0.056l-0.044,-0.056l-0.043,-0.056l-0.044,-0.054l-0.044,-0.054l-0.044,-0.053l-0.044,-0.052l-0.045,-0.051l-0.044,-0.051l-0.044,-0.049l-0.045,-0.049l-0.045,-0.049l-0.044,-0.047l-0.045,-0.047l-0.045,-0.046l-0.045,-0.045l-0.045,-0.045l-0.045,-0.044l-0.045,-0.043l-0.045,-0.042l-0.045,-0.042l-0.046,-0.041l-0.045,-0.04l-0.046,-0.04l-0.045,-0.039l-0.046,-0.038l-0.045,-0.037l-0.046,-0.037l-0.046,-0.036l-0.045,-0.036l-0.046,-0.035l-0.046,-0.034l-0.046,-0.033l-0.046,-0.033l-0.047,-0.032l-0.046,-0.032l-0.046,-0.031l-0.047,-0.03l-0.046,-0.03l-0.047,-0.029l-0.046,-0.029l-0.047,-0.028l-0.047,-0.027l-0.045,-0.025l-0.045,-0.026l-0.045,-0.024l-0.046,-0.025l-0.046,-0.023l-0.047,-0.024l-0.047,-0.023l-0.048,-0.023l-0.048,-0.023l-0.048,-0.022l-0.049,-0.022l-0.05,-0.021l-0.05,-0.021l-0.05,-0.021l-0.051,-0.02l-0.052,-0.02l-0.052,-0.02l-0.053,-0.019l-0.052,-0.019l-0.054,-0.018l-0.054,-0.019l-0.055,-0.017l-0.055,-0.018l-0.056,-0.017l-0.056,-0.016l-0.057,-0.016l-0.057,-0.016l-0.058,-0.016l-0.058,-0.015l-0.059,-0.014l-0.06,-0.014l-0.06,-0.014l-0.061,-0.013l-0.061,-0.013l-0.062,-0.013l-0.056,-0.011l-0.133,-0.024l-0.129,-0.021l-0.131,-0.019l-0.134,-0.018l-0.136,-0.015l-0.138,-0.014l-0.14,-0.012l-0.143,-0.01l-0.145,-0.008l-0.148,-0.005l-0.15,-0.004l-0.152,-0.002l-0.154,0Z" style="fill:#fff;"/><path d="M73.29,29.018l0.253,0.005l0.254,0.009l0.255,0.011l0.255,0.015l0.257,0.019l0.257,0.021l0.258,0.025l0.259,0.028l0.26,0.031l0.26,0.035l0.262,0.037l0.262,0.041l0.263,0.044l0.264,0.047l0.265,0.05l0.265,0.053l0.267,0.056l0.267,0.06l0.268,0.062l0.269,0.065l0.269,0.068l0.271,0.071l0.271,0.074l0.272,0.077l0.273,0.08l0.273,0.083l0.274,0.085l0.276,0.089l0.276,0.092l0.276,0.094l0.278,0.097l0.278,0.1l0.279,0.103l0.28,0.106l0.28,0.108l0.281,0.111l0.282,0.115l0.283,0.116l0.284,0.12l0.284,0.123l0.285,0.125l0.285,0.128l0.287,0.131l0.287,0.133l0.287,0.137l0.289,0.139l0.289,0.142l0.289,0.144l0.291,0.147l0.291,0.15l0.292,0.153l0.292,0.156l0.293,0.158l0.293,0.161l0.295,0.163l0.294,0.166l0.296,0.169l0.296,0.172l0.296,0.174l0.297,0.177l0.298,0.18l0.298,0.183l0.299,0.185l0.299,0.187l0.3,0.191l0.3,0.193l0.301,0.196l0.301,0.198l0.302,0.201l0.302,0.204l0.302,0.206l0.304,0.209l0.303,0.212l0.304,0.214l0.304,0.217l0.305,0.22l0.305,0.222l0.305,0.224l0.306,0.228l0.306,0.23l0.307,0.233l0.307,0.235l0.307,0.238l0.307,0.24l0.308,0.243l0.308,0.246l0.308,0.248l0.309,0.251l0.308,0.254l0.309,0.256l0.309,0.259l0.31,0.261l0.309,0.264l0.31,0.266l0.31,0.269l0.31,0.272l0.31,0.274l0.236,0.21l0.235,0.211l0.235,0.213l0.236,0.214l0.235,0.216l0.235,0.218l0.236,0.219l0.235,0.22l0.235,0.222l0.235,0.223l0.235,0.225l0.235,0.227l0.235,0.227l0.235,0.23l0.235,0.23l0.235,0.232l0.235,0.234l0.234,0.235l0.235,0.236l0.235,0.238l0.234,0.239l0.234,0.241l0.235,0.242l0.234,0.243l0.234,0.245l0.234,0.246l0.234,0.248l0.234,0.249l0.233,0.25l0.234,0.251l0.233,0.253l0.234,0.254l0.233,0.256l0.233,0.257l0.233,0.258l0.233,0.259l0.233,0.261l0.232,0.262l0.233,0.264l0.232,0.264l0.232,0.266l0.232,0.267l0.232,0.269l0.232,0.269l0.231,0.271l0.231,0.272l0.232,0.274l0.23,0.274l0.231,0.276l0.231,0.277l0.23,0.278l0.23,0.279l0.23,0.281l0.23,0.282l0.23,0.283l0.229,0.284l0.229,0.285l0.229,0.286l0.229,0.288l0.229,0.289l0.228,0.29l0.228,0.29l0.228,0.293l0.227,0.293l0.228,0.294l0.227,0.295l0.227,0.297l0.226,0.297l0.226,0.299l0.226,0.3l0.226,0.3l0.226,0.302l0.225,0.303l0.225,0.304l0.224,0.305l0.225,0.306l0.224,0.307l0.223,0.308l0.224,0.309l0.223,0.31l0.223,0.311l0.222,0.312l0.222,0.313l0.222,0.314l0.222,0.315l0.221,0.316l0.221,0.317l0.22,0.317l0.22,0.319l0.22,0.32l0.219,0.32l0.219,0.322l0.219,0.322l0.218,0.324l0.218,0.324l0.218,0.325l0.217,0.326l0.217,0.327l0.216,0.327l0.216,0.329l0.216,0.329l0.215,0.331l0.215,0.331l0.214,0.332l0.214,0.333l0.213,0.333l0.214,0.335l0.212,0.335l0.212,0.336l0.212,0.337l0.211,0.338l0.211,0.338l0.211,0.339l0.21,0.34l0.209,0.341l0.209,0.341l0.209,0.343l0.208,0.343l0.207,0.343l0.207,0.345l0.207,0.345l0.206,0.346l0.206,0.346l0.205,0.348l0.204,0.348l0.204,0.348l0.204,0.349l0.204,0.351l0.412,0.716l0.411,0.718l0.407,0.718l0.403,0.718l0.4,0.718l0.397,0.718l0.393,0.717l0.196,0.36l0.195,0.359l0.193,0.359l0.193,0.359l0.192,0.359l0.191,0.359l0.19,0.359l0.189,0.359l0.188,0.359l0.187,0.358l0.187,0.359l0.185,0.358l0.185,0.359l0.183,0.358l0.183,0.358l0.182,0.358l0.18,0.358l0.18,0.358l0.179,0.358l0.178,0.357l0.177,0.358l0.175,0.357l0.175,0.357l0.174,0.357l0.173,0.357l0.172,0.356l0.171,0.357l0.17,0.356l0.169,0.356l0.167,0.355l0.167,0.356l0.166,0.355l0.165,0.355l0.163,0.355l0.163,0.355l0.162,0.354l0.16,0.354l0.16,0.354l0.158,0.353l0.157,0.354l0.157,0.353l0.155,0.352l0.154,0.353l0.153,0.352l0.152,0.351l0.151,0.352l0.149,0.351l0.149,0.351l0.147,0.35l0.146,0.35l0.146,0.35l0.144,0.349l0.143,0.349l0.141,0.349l0.141,0.348l0.139,0.348l0.139,0.347l0.137,0.347l0.136,0.347l0.135,0.346l0.133,0.346l0.132,0.345l0.132,0.345l0.13,0.345l0.128,0.344l0.128,0.343l0.126,0.343l0.126,0.343l0.123,0.342l0.123,0.342l0.122,0.341l0.12,0.341l0.119,0.34l0.117,0.34l0.117,0.339l0.115,0.339l0.114,0.338l0.113,0.338l0.111,0.337l0.11,0.337l0.109,0.336l0.107,0.335l0.106,0.335l0.105,0.334l0.104,0.334l0.102,0.333l0.101,0.333l0.1,0.332l0.098,0.332l0.097,0.33l0.095,0.331l0.094,0.329l0.093,0.329l0.092,0.329l0.09,0.327l0.089,0.327l0.087,0.327l0.086,0.326l0.084,0.325l0.084,0.324l0.081,0.324l0.081,0.323l0.079,0.323l0.077,0.322l0.076,0.321l0.075,0.32l0.073,0.32l0.072,0.319l0.07,0.318l0.069,0.318l0.067,0.317l0.066,0.316l0.064,0.315l0.063,0.315l0.078,0.395l0.075,0.394l0.073,0.393l0.071,0.391l0.068,0.39l0.067,0.389l0.064,0.388l0.062,0.385l0.06,0.385l0.058,0.383l0.056,0.381l0.053,0.38l0.052,0.379l0.049,0.377l0.047,0.376l0.045,0.374l0.043,0.372l0.041,0.371l0.039,0.37l0.037,0.368l0.034,0.366l0.033,0.365l0.03,0.363l0.029,0.362l0.026,0.36l0.024,0.358l0.022,0.357l0.02,0.355l0.018,0.353l0.016,0.352l0.014,0.35l0.012,0.348l0.01,0.347l0.008,0.345l0.006,0.343l0.003,0.342l0.002,0.339l0,0.338l-0.003,0.336l-0.004,0.335l-0.006,0.332l-0.009,0.331l-0.01,0.329l-0.013,0.327l-0.014,0.326l-0.016,0.323l-0.019,0.322l-0.02,0.319l-0.023,0.318l-0.024,0.316l-0.026,0.314l-0.029,0.313l-0.03,0.31l-0.033,0.308l-0.034,0.307l-0.036,0.304l-0.039,0.303l-0.04,0.301l-0.042,0.298l-0.045,0.297l-0.046,0.295l-0.049,0.292l-0.05,0.291l-0.052,0.289l-0.055,0.286l-0.056,0.285l-0.059,0.283l-0.06,0.28l-0.062,0.279l-0.065,0.276l-0.066,0.274l-0.069,0.273l-0.071,0.27l-0.072,0.268l-0.075,0.266l-0.077,0.264l-0.079,0.261l-0.081,0.26l-0.083,0.257l-0.085,0.256l-0.087,0.253l-0.089,0.251l-0.092,0.248l-0.094,0.247l-0.096,0.244l-0.098,0.242l-0.1,0.24l-0.102,0.237l-0.105,0.235l-0.107,0.233l-0.109,0.231l-0.111,0.228l-0.114,0.226l-0.116,0.224l-0.118,0.221l-0.121,0.219l-0.123,0.216l-0.125,0.214l-0.128,0.212l-0.13,0.208l-0.132,0.207l-0.136,0.204l-0.137,0.201l-0.14,0.198l-0.143,0.196l-0.145,0.194l-0.147,0.19l-0.147,0.183l-0.08,0.097l-0.076,0.092l-0.078,0.092l-0.078,0.091l-0.079,0.089l-0.079,0.09l-0.08,0.088l-0.081,0.088l-0.081,0.087l-0.082,0.086l-0.083,0.085l-0.083,0.085l-0.084,0.084l-0.085,0.083l-0.085,0.082l-0.086,0.081l-0.087,0.081l-0.087,0.08l-0.088,0.079l-0.089,0.078l-0.089,0.077l-0.09,0.076l-0.091,0.076l-0.091,0.075l-0.092,0.073l-0.093,0.073l-0.093,0.072l-0.094,0.072l-0.095,0.07l-0.095,0.069l-0.096,0.068l-0.097,0.068l-0.097,0.066l-0.098,0.066l-0.099,0.064l-0.099,0.064l-0.1,0.062l-0.1,0.062l-0.101,0.06l-0.101,0.059l-0.099,0.057l-0.101,0.056l-0.1,0.055l-0.1,0.053l-0.101,0.053l-0.102,0.052l-0.102,0.051l-0.103,0.05l-0.103,0.049l-0.104,0.048l-0.104,0.047l-0.104,0.046l-0.105,0.045l-0.106,0.044l-0.105,0.043l-0.106,0.042l-0.107,0.041l-0.107,0.04l-0.107,0.039l-0.108,0.038l-0.108,0.038l-0.109,0.036l-0.108,0.035l-0.11,0.035l-0.109,0.033l-0.11,0.033l-0.11,0.031l-0.117,0.033l-0.216,0.056l-0.223,0.055l-0.224,0.051l-0.226,0.048l-0.227,0.043l-0.227,0.041l-0.229,0.036l-0.23,0.034l-0.231,0.029l-0.231,0.027l-0.233,0.023l-0.234,0.019l-0.234,0.017l-0.235,0.012l-0.236,0.01l-0.237,0.006l-0.238,0.004l-0.239,0l-0.239,-0.004l-0.24,-0.006l-0.241,-0.009l-0.242,-0.013l-0.242,-0.015l-0.244,-0.019l-0.244,-0.021l-0.244,-0.025l-0.246,-0.027l-0.246,-0.031l-0.247,-0.033l-0.248,-0.036l-0.248,-0.039l-0.249,-0.042l-0.25,-0.045l-0.25,-0.047l-0.251,-0.051l-0.252,-0.053l-0.253,-0.056l-0.253,-0.058l-0.254,-0.062l-0.255,-0.064l-0.255,-0.067l-0.256,-0.069l-0.257,-0.073l-0.257,-0.074l-0.259,-0.078l-0.258,-0.08l-0.26,-0.083l-0.26,-0.086l-0.261,-0.088l-0.261,-0.091l-0.263,-0.093l-0.262,-0.096l-0.264,-0.099l-0.264,-0.101l-0.265,-0.104l-0.265,-0.106l-0.266,-0.109l-0.267,-0.112l-0.267,-0.114l-0.268,-0.116l-0.269,-0.12l-0.269,-0.121l-0.27,-0.124l-0.271,-0.127l-0.271,-0.13l-0.271,-0.131l-0.272,-0.135l-0.273,-0.137l-0.274,-0.139l-0.274,-0.142l-0.274,-0.144l-0.275,-0.147l-0.276,-0.15l-0.276,-0.151l-0.277,-0.155l-0.277,-0.157l-0.278,-0.159l-0.278,-0.162l-0.279,-0.164l-0.279,-0.167l-0.28,-0.169l-0.28,-0.172l-0.281,-0.174l-0.281,-0.176l-0.282,-0.18l-0.282,-0.181l-0.283,-0.184l-0.283,-0.186l-0.283,-0.189l-0.284,-0.192l-0.284,-0.193l-0.285,-0.197l-0.285,-0.198l-0.286,-0.201l-0.285,-0.204l-0.287,-0.206l-0.286,-0.208l-0.287,-0.211l-0.287,-0.213l-0.288,-0.216l-0.288,-0.218l-0.288,-0.22l-0.288,-0.223l-0.289,-0.225l-0.289,-0.228l-0.289,-0.23l-0.29,-0.232l-0.29,-0.235l-0.29,-0.238l-0.29,-0.239l-0.29,-0.242l-0.291,-0.245l-0.291,-0.247l-0.291,-0.249l-0.246,-0.213l-0.246,-0.214l-0.246,-0.216l-0.247,-0.217l-0.246,-0.219l-0.246,-0.221l-0.247,-0.222l-0.247,-0.225l-0.246,-0.225l-0.247,-0.228l-0.247,-0.229l-0.247,-0.23l-0.248,-0.232l-0.247,-0.234l-0.247,-0.235l-0.248,-0.237l-0.247,-0.239l-0.248,-0.24l-0.247,-0.242l-0.248,-0.243l-0.248,-0.245l-0.248,-0.247l-0.247,-0.248l-0.248,-0.249l-0.248,-0.251l-0.248,-0.253l-0.248,-0.254l-0.247,-0.256l-0.248,-0.257l-0.248,-0.258l-0.248,-0.26l-0.248,-0.262l-0.248,-0.263l-0.248,-0.265l-0.247,-0.266l-0.248,-0.267l-0.248,-0.269l-0.247,-0.271l-0.248,-0.272l-0.247,-0.273l-0.248,-0.274l-0.247,-0.277l-0.247,-0.277l-0.247,-0.279l-0.247,-0.28l-0.247,-0.282l-0.247,-0.283l-0.247,-0.285l-0.247,-0.286l-0.246,-0.287l-0.246,-0.289l-0.247,-0.29l-0.246,-0.291l-0.246,-0.292l-0.245,-0.294l-0.246,-0.296l-0.245,-0.296l-0.246,-0.298l-0.245,-0.299l-0.244,-0.301l-0.245,-0.302l-0.245,-0.303l-0.244,-0.304l-0.244,-0.306l-0.244,-0.307l-0.243,-0.308l-0.244,-0.309l-0.243,-0.311l-0.242,-0.312l-0.243,-0.313l-0.242,-0.315l-0.242,-0.315l-0.242,-0.317l-0.242,-0.318l-0.241,-0.319l-0.241,-0.32l-0.24,-0.322l-0.241,-0.323l-0.24,-0.324l-0.239,-0.325l-0.24,-0.326l-0.239,-0.327l-0.238,-0.329l-0.239,-0.329l-0.238,-0.331l-0.237,-0.332l-0.238,-0.333l-0.236,-0.334l-0.237,-0.335l-0.236,-0.336l-0.236,-0.338l-0.235,-0.338l-0.235,-0.34l-0.234,-0.34l-0.234,-0.342l-0.234,-0.343l-0.233,-0.343l-0.233,-0.345l-0.232,-0.346l-0.232,-0.347l-0.231,-0.348l-0.231,-0.348l-0.231,-0.35l-0.23,-0.351l-0.229,-0.352l-0.229,-0.353l-0.228,-0.354l-0.228,-0.354l-0.228,-0.356l-0.227,-0.357l-0.226,-0.357l-0.226,-0.359l-0.225,-0.36l-0.225,-0.36l-0.224,-0.361l-0.224,-0.363l-0.223,-0.363l-0.222,-0.364l-0.222,-0.365l-0.221,-0.366l-0.221,-0.366l-0.22,-0.368l-0.22,-0.368l-0.218,-0.37l-0.219,-0.37l-0.217,-0.371l-0.217,-0.372l-0.217,-0.373l-0.213,-0.369l-0.212,-0.37l-0.211,-0.369l-0.21,-0.37l-0.21,-0.37l-0.208,-0.37l-0.206,-0.369l-0.206,-0.37l-0.205,-0.37l-0.204,-0.37l-0.202,-0.37l-0.202,-0.37l-0.2,-0.37l-0.2,-0.369l-0.198,-0.37l-0.197,-0.37l-0.196,-0.369l-0.195,-0.37l-0.194,-0.37l-0.193,-0.369l-0.191,-0.369l-0.191,-0.37l-0.19,-0.369l-0.188,-0.369l-0.187,-0.369l-0.186,-0.369l-0.185,-0.368l-0.184,-0.369l-0.183,-0.368l-0.182,-0.369l-0.18,-0.368l-0.18,-0.368l-0.178,-0.367l-0.177,-0.368l-0.177,-0.367l-0.175,-0.367l-0.173,-0.367l-0.173,-0.367l-0.172,-0.367l-0.17,-0.366l-0.169,-0.366l-0.168,-0.366l-0.167,-0.365l-0.166,-0.366l-0.165,-0.365l-0.164,-0.365l-0.162,-0.364l-0.161,-0.364l-0.16,-0.364l-0.159,-0.364l-0.158,-0.363l-0.157,-0.363l-0.155,-0.362l-0.155,-0.363l-0.153,-0.361l-0.152,-0.362l-0.151,-0.361l-0.149,-0.361l-0.149,-0.36l-0.147,-0.36l-0.146,-0.36l-0.145,-0.359l-0.144,-0.359l-0.143,-0.359l-0.141,-0.358l-0.14,-0.357l-0.139,-0.357l-0.138,-0.357l-0.137,-0.356l-0.135,-0.356l-0.134,-0.355l-0.133,-0.355l-0.132,-0.354l-0.131,-0.354l-0.129,-0.354l-0.129,-0.353l-0.127,-0.352l-0.125,-0.352l-0.125,-0.351l-0.123,-0.351l-0.123,-0.35l-0.121,-0.35l-0.119,-0.349l-0.119,-0.348l-0.117,-0.348l-0.116,-0.348l-0.115,-0.346l-0.114,-0.347l-0.112,-0.345l-0.111,-0.345l-0.11,-0.344l-0.109,-0.344l-0.107,-0.343l-0.106,-0.343l-0.105,-0.342l-0.104,-0.341l-0.102,-0.34l-0.101,-0.34l-0.1,-0.339l-0.099,-0.339l-0.097,-0.338l-0.097,-0.337l-0.094,-0.336l-0.094,-0.336l-0.092,-0.335l-0.092,-0.334l-0.089,-0.334l-0.089,-0.332l-0.087,-0.332l-0.086,-0.332l-0.085,-0.33l-0.083,-0.33l-0.082,-0.329l-0.081,-0.328l-0.08,-0.328l-0.078,-0.326l-0.077,-0.326l-0.076,-0.325l-0.074,-0.324l-0.073,-0.324l-0.072,-0.322l-0.07,-0.322l-0.069,-0.321l-0.068,-0.32l-0.067,-0.319l-0.065,-0.318l-0.064,-0.318l-0.062,-0.317l-0.074,-0.38l-0.072,-0.38l-0.069,-0.378l-0.068,-0.376l-0.066,-0.376l-0.063,-0.374l-0.062,-0.372l-0.06,-0.372l-0.058,-0.37l-0.056,-0.369l-0.054,-0.367l-0.053,-0.366l-0.05,-0.364l-0.048,-0.363l-0.047,-0.362l-0.044,-0.36l-0.043,-0.359l-0.04,-0.357l-0.039,-0.356l-0.037,-0.354l-0.035,-0.353l-0.033,-0.351l-0.031,-0.35l-0.029,-0.348l-0.027,-0.347l-0.026,-0.345l-0.023,-0.344l-0.022,-0.342l-0.019,-0.341l-0.018,-0.338l-0.016,-0.338l-0.014,-0.335l-0.012,-0.335l-0.01,-0.332l-0.008,-0.331l-0.007,-0.329l-0.004,-0.327l-0.003,-0.326l0,-0.324l0.001,-0.323l0.003,-0.321l0.005,-0.319l0.007,-0.317l0.008,-0.316l0.011,-0.314l0.013,-0.312l0.014,-0.31l0.016,-0.309l0.018,-0.307l0.021,-0.305l0.022,-0.303l0.024,-0.302l0.025,-0.3l0.028,-0.298l0.03,-0.296l0.031,-0.294l0.034,-0.293l0.035,-0.29l0.037,-0.289l0.04,-0.287l0.041,-0.285l0.043,-0.283l0.045,-0.281l0.047,-0.28l0.049,-0.277l0.051,-0.276l0.053,-0.274l0.054,-0.271l0.057,-0.27l0.059,-0.268l0.061,-0.266l0.063,-0.264l0.065,-0.262l0.066,-0.26l0.069,-0.258l0.071,-0.256l0.073,-0.255l0.075,-0.252l0.078,-0.25l0.079,-0.248l0.081,-0.246l0.084,-0.244l0.085,-0.242l0.088,-0.24l0.09,-0.238l0.092,-0.235l0.095,-0.234l0.097,-0.231l0.098,-0.23l0.102,-0.227l0.103,-0.225l0.106,-0.223l0.108,-0.22l0.11,-0.219l0.113,-0.216l0.115,-0.214l0.118,-0.211l0.12,-0.21l0.123,-0.207l0.125,-0.204l0.127,-0.202l0.13,-0.2l0.133,-0.197l0.135,-0.195l0.138,-0.192l0.14,-0.19l0.143,-0.187l0.146,-0.184l0.145,-0.177l0.079,-0.095l0.076,-0.089l0.076,-0.088l0.078,-0.088l0.078,-0.087l0.078,-0.086l0.08,-0.085l0.08,-0.085l0.08,-0.084l0.082,-0.083l0.082,-0.083l0.083,-0.082l0.083,-0.081l0.084,-0.08l0.085,-0.079l0.086,-0.079l0.086,-0.077l0.087,-0.077l0.088,-0.076l0.088,-0.076l0.089,-0.074l0.089,-0.073l0.091,-0.073l0.091,-0.072l0.092,-0.071l0.092,-0.07l0.093,-0.069l0.094,-0.068l0.094,-0.068l0.095,-0.066l0.096,-0.065l0.096,-0.065l0.097,-0.064l0.098,-0.062l0.098,-0.062l0.099,-0.06l0.1,-0.06l0.1,-0.058l0.103,-0.06l0.105,-0.058l0.106,-0.058l0.106,-0.056l0.106,-0.056l0.108,-0.054l0.107,-0.053l0.109,-0.052l0.108,-0.051l0.11,-0.05l0.109,-0.049l0.111,-0.048l0.11,-0.046l0.111,-0.046l0.112,-0.044l0.112,-0.044l0.113,-0.042l0.113,-0.041l0.113,-0.041l0.114,-0.039l0.114,-0.038l0.115,-0.037l0.115,-0.036l0.115,-0.035l0.116,-0.034l0.116,-0.033l0.116,-0.032l0.117,-0.03l0.117,-0.03l0.118,-0.029l0.117,-0.028l0.119,-0.027l0.118,-0.025l0.119,-0.025l0.119,-0.024l0.119,-0.023l0.12,-0.022l0.12,-0.021l0.12,-0.019l0.121,-0.019l0.121,-0.018l0.121,-0.017l0.121,-0.016l0.122,-0.015l0.122,-0.015l0.122,-0.013l0.123,-0.012l0.123,-0.011l0.123,-0.011l0.129,-0.01l0.241,-0.016l0.248,-0.012l0.249,-0.009l0.25,-0.006l0.252,-0.002l0.251,0.001Zm-0.406,6.382l-0.16,0.004l-0.157,0.005l-0.155,0.008l-0.158,0.011l-0.07,0.005l-0.074,0.006l-0.074,0.007l-0.074,0.008l-0.073,0.007l-0.072,0.009l-0.071,0.009l-0.071,0.009l-0.071,0.01l-0.069,0.01l-0.069,0.011l-0.069,0.011l-0.068,0.012l-0.067,0.012l-0.066,0.013l-0.066,0.013l-0.066,0.014l-0.064,0.014l-0.064,0.015l-0.064,0.015l-0.063,0.015l-0.062,0.016l-0.062,0.016l-0.061,0.017l-0.06,0.017l-0.06,0.018l-0.06,0.018l-0.058,0.018l-0.059,0.019l-0.057,0.019l-0.057,0.02l-0.057,0.02l-0.055,0.02l-0.056,0.021l-0.054,0.021l-0.055,0.022l-0.053,0.022l-0.053,0.022l-0.053,0.023l-0.052,0.023l-0.052,0.024l-0.051,0.023l-0.05,0.025l-0.05,0.024l-0.05,0.026l-0.049,0.025l-0.048,0.026l-0.048,0.026l-0.048,0.027l-0.048,0.027l-0.045,0.026l-0.044,0.027l-0.044,0.027l-0.044,0.027l-0.044,0.028l-0.044,0.029l-0.043,0.029l-0.044,0.03l-0.043,0.03l-0.044,0.031l-0.043,0.032l-0.043,0.032l-0.044,0.033l-0.043,0.033l-0.043,0.034l-0.043,0.035l-0.043,0.035l-0.043,0.036l-0.043,0.037l-0.042,0.037l-0.043,0.037l-0.043,0.039l-0.042,0.039l-0.043,0.04l-0.042,0.04l-0.043,0.041l-0.042,0.042l-0.042,0.042l-0.042,0.044l-0.043,0.043l-0.042,0.045l-0.042,0.045l-0.041,0.046l-0.042,0.047l-0.042,0.047l-0.042,0.048l-0.041,0.049l-0.037,0.044l-0.087,0.106l-0.082,0.105l-0.082,0.106l-0.082,0.11l-0.081,0.113l-0.08,0.116l-0.08,0.119l-0.079,0.122l-0.079,0.124l-0.078,0.128l-0.078,0.131l-0.076,0.134l-0.076,0.137l-0.076,0.14l-0.074,0.142l-0.074,0.146l-0.073,0.149l-0.072,0.152l-0.071,0.155l-0.07,0.158l-0.07,0.16l-0.068,0.164l-0.067,0.167l-0.067,0.169l-0.065,0.173l-0.064,0.175l-0.063,0.178l-0.062,0.182l-0.061,0.184l-0.06,0.186l-0.058,0.19l-0.058,0.192l-0.056,0.196l-0.055,0.198l-0.053,0.2l-0.053,0.204l-0.051,0.206l-0.049,0.209l-0.049,0.211l-0.047,0.215l-0.045,0.216l-0.045,0.22l-0.043,0.222l-0.041,0.224l-0.04,0.228l-0.039,0.229l-0.037,0.233l-0.036,0.234l-0.034,0.237l-0.033,0.24l-0.031,0.242l-0.03,0.245l-0.028,0.247l-0.027,0.249l-0.025,0.252l-0.024,0.254l-0.022,0.256l-0.02,0.259l-0.019,0.261l-0.017,0.263l-0.016,0.265l-0.014,0.268l-0.013,0.27l-0.011,0.272l-0.009,0.275l-0.008,0.276l-0.006,0.279l-0.004,0.28l-0.003,0.283l-0.001,0.285l0.001,0.287l0.002,0.289l0.004,0.291l0.006,0.294l0.007,0.295l0.009,0.297l0.011,0.299l0.013,0.301l0.014,0.303l0.016,0.305l0.017,0.307l0.02,0.308l0.021,0.311l0.023,0.312l0.025,0.314l0.026,0.316l0.028,0.318l0.03,0.32l0.032,0.321l0.034,0.323l0.035,0.325l0.037,0.327l0.039,0.328l0.041,0.33l0.043,0.332l0.044,0.333l0.046,0.335l0.048,0.337l0.05,0.338l0.052,0.339l0.053,0.342l0.055,0.343l0.058,0.344l0.059,0.346l0.06,0.348l0.063,0.349l0.065,0.35l0.066,0.352l0.069,0.354l0.058,0.294l0.059,0.295l0.061,0.297l0.062,0.298l0.063,0.299l0.065,0.3l0.066,0.301l0.067,0.302l0.068,0.302l0.07,0.304l0.071,0.305l0.072,0.306l0.074,0.307l0.075,0.308l0.076,0.308l0.077,0.31l0.079,0.31l0.079,0.312l0.081,0.312l0.083,0.313l0.083,0.315l0.085,0.315l0.086,0.315l0.087,0.317l0.089,0.318l0.09,0.318l0.091,0.319l0.092,0.32l0.094,0.321l0.094,0.322l0.096,0.322l0.098,0.323l0.098,0.324l0.1,0.325l0.101,0.326l0.102,0.326l0.103,0.327l0.105,0.327l0.106,0.329l0.107,0.329l0.108,0.33l0.109,0.33l0.111,0.332l0.112,0.331l0.113,0.333l0.114,0.333l0.116,0.334l0.116,0.334l0.118,0.335l0.119,0.336l0.12,0.336l0.122,0.337l0.123,0.338l0.123,0.338l0.125,0.339l0.127,0.339l0.127,0.34l0.129,0.34l0.129,0.341l0.131,0.341l0.133,0.342l0.133,0.342l0.134,0.343l0.136,0.344l0.137,0.344l0.138,0.344l0.139,0.345l0.14,0.345l0.142,0.346l0.142,0.346l0.144,0.347l0.145,0.347l0.146,0.347l0.147,0.348l0.149,0.349l0.149,0.348l0.151,0.349l0.152,0.35l0.153,0.35l0.154,0.35l0.155,0.35l0.156,0.351l0.158,0.351l0.158,0.352l0.16,0.351l0.161,0.353l0.162,0.352l0.163,0.353l0.164,0.353l0.166,0.353l0.166,0.353l0.168,0.354l0.168,0.354l0.17,0.354l0.171,0.355l0.172,0.354l0.173,0.355l0.174,0.355l0.176,0.355l0.176,0.356l0.177,0.356l0.179,0.355l0.18,0.356l0.18,0.356l0.182,0.357l0.183,0.356l0.184,0.357l0.185,0.356l0.186,0.357l0.187,0.357l0.189,0.357l0.189,0.357l0.191,0.357l0.191,0.357l0.193,0.357l0.193,0.357l0.195,0.357l0.196,0.358l0.196,0.357l0.198,0.357l0.199,0.358l0.2,0.357l0.201,0.357l0.202,0.358l0.203,0.357l0.204,0.357l0.205,0.358l0.207,0.357l0.209,0.36l0.209,0.359l0.21,0.359l0.211,0.357l0.212,0.357l0.212,0.356l0.213,0.355l0.213,0.355l0.214,0.353l0.214,0.353l0.215,0.352l0.215,0.351l0.217,0.35l0.216,0.349l0.217,0.348l0.218,0.347l0.218,0.347l0.219,0.345l0.219,0.345l0.219,0.343l0.221,0.343l0.22,0.341l0.221,0.341l0.222,0.34l0.222,0.339l0.222,0.337l0.223,0.337l0.224,0.336l0.223,0.335l0.225,0.333l0.224,0.333l0.225,0.332l0.226,0.33l0.225,0.33l0.226,0.329l0.227,0.327l0.227,0.326l0.227,0.326l0.228,0.324l0.228,0.323l0.228,0.322l0.229,0.321l0.229,0.32l0.229,0.319l0.23,0.317l0.23,0.317l0.23,0.315l0.23,0.314l0.231,0.313l0.231,0.312l0.231,0.311l0.232,0.309l0.232,0.308l0.232,0.307l0.232,0.306l0.233,0.305l0.232,0.303l0.233,0.303l0.234,0.301l0.233,0.299l0.233,0.299l0.234,0.297l0.234,0.296l0.234,0.295l0.234,0.293l0.235,0.292l0.234,0.291l0.235,0.289l0.235,0.288l0.235,0.287l0.235,0.286l0.235,0.284l0.235,0.283l0.235,0.281l0.236,0.28l0.235,0.279l0.236,0.278l0.235,0.276l0.236,0.274l0.236,0.273l0.235,0.272l0.236,0.271l0.236,0.269l0.236,0.267l0.236,0.266l0.235,0.265l0.236,0.263l0.236,0.262l0.236,0.26l0.235,0.259l0.236,0.258l0.235,0.255l0.236,0.255l0.236,0.253l0.235,0.251l0.235,0.25l0.235,0.248l0.236,0.247l0.235,0.245l0.234,0.244l0.235,0.242l0.235,0.24l0.234,0.239l0.235,0.238l0.234,0.236l0.234,0.234l0.234,0.232l0.233,0.231l0.234,0.23l0.233,0.228l0.233,0.226l0.233,0.224l0.233,0.223l0.232,0.221l0.232,0.22l0.232,0.217l0.232,0.216l0.231,0.215l0.231,0.213l0.231,0.211l0.23,0.209l0.231,0.208l0.229,0.206l0.23,0.204l0.229,0.202l0.229,0.201l0.228,0.199l0.228,0.196l0.27,0.231l0.269,0.229l0.268,0.226l0.269,0.223l0.268,0.222l0.267,0.218l0.267,0.217l0.267,0.214l0.266,0.211l0.265,0.21l0.265,0.206l0.265,0.205l0.264,0.202l0.263,0.199l0.263,0.197l0.262,0.195l0.262,0.192l0.26,0.19l0.261,0.187l0.259,0.185l0.259,0.182l0.259,0.18l0.257,0.178l0.257,0.175l0.256,0.172l0.256,0.171l0.254,0.167l0.254,0.165l0.253,0.163l0.252,0.161l0.252,0.157l0.25,0.156l0.25,0.153l0.249,0.15l0.247,0.148l0.247,0.146l0.246,0.143l0.245,0.14l0.245,0.138l0.243,0.136l0.242,0.133l0.241,0.131l0.24,0.128l0.239,0.126l0.238,0.123l0.237,0.121l0.236,0.118l0.234,0.116l0.234,0.113l0.232,0.111l0.231,0.108l0.23,0.106l0.229,0.103l0.227,0.101l0.226,0.099l0.225,0.096l0.224,0.093l0.222,0.091l0.221,0.089l0.219,0.086l0.218,0.083l0.217,0.081l0.215,0.079l0.214,0.076l0.213,0.074l0.211,0.071l0.209,0.069l0.208,0.067l0.206,0.064l0.205,0.061l0.203,0.059l0.201,0.057l0.2,0.054l0.198,0.052l0.197,0.05l0.195,0.047l0.193,0.044l0.191,0.043l0.189,0.04l0.188,0.037l0.186,0.036l0.184,0.033l0.182,0.03l0.18,0.029l0.179,0.026l0.176,0.023l0.175,0.022l0.172,0.019l0.171,0.017l0.168,0.015l0.166,0.013l0.165,0.01l0.162,0.009l0.16,0.006l0.158,0.004l0.156,0.002l0.154,0l0.152,-0.002l0.149,-0.004l0.148,-0.006l0.145,-0.008l0.143,-0.01l0.141,-0.012l0.138,-0.013l0.137,-0.016l0.134,-0.017l0.132,-0.019l0.13,-0.021l0.127,-0.023l0.126,-0.024l0.123,-0.026l0.121,-0.027l0.119,-0.03l0.124,-0.032l0.051,-0.014l0.057,-0.017l0.057,-0.016l0.056,-0.018l0.055,-0.017l0.055,-0.018l0.055,-0.018l0.054,-0.019l0.053,-0.019l0.053,-0.019l0.053,-0.02l0.052,-0.02l0.052,-0.02l0.051,-0.021l0.051,-0.021l0.05,-0.022l0.049,-0.022l0.05,-0.022l0.049,-0.023l0.048,-0.023l0.048,-0.023l0.048,-0.024l0.047,-0.024l0.046,-0.024l0.047,-0.025l0.046,-0.025l0.045,-0.025l0.045,-0.026l0.047,-0.027l0.045,-0.028l0.046,-0.028l0.046,-0.028l0.046,-0.03l0.046,-0.03l0.045,-0.03l0.046,-0.032l0.046,-0.031l0.045,-0.033l0.046,-0.033l0.045,-0.034l0.046,-0.034l0.045,-0.035l0.046,-0.036l0.045,-0.036l0.045,-0.037l0.045,-0.038l0.046,-0.038l0.045,-0.039l0.045,-0.04l0.045,-0.041l0.045,-0.041l0.045,-0.042l0.045,-0.042l0.045,-0.043l0.045,-0.044l0.045,-0.045l0.045,-0.046l0.044,-0.046l0.045,-0.047l0.045,-0.047l0.044,-0.049l0.045,-0.049l0.044,-0.05l0.044,-0.05l0.044,-0.052l0.045,-0.052l0.044,-0.053l0.04,-0.049l0.091,-0.114l0.088,-0.113l0.087,-0.115l0.086,-0.119l0.086,-0.122l0.085,-0.125l0.085,-0.128l0.084,-0.131l0.084,-0.134l0.083,-0.138l0.082,-0.14l0.082,-0.143l0.081,-0.147l0.08,-0.15l0.079,-0.153l0.079,-0.156l0.077,-0.159l0.077,-0.162l0.075,-0.165l0.075,-0.168l0.074,-0.171l0.073,-0.174l0.072,-0.177l0.07,-0.18l0.07,-0.184l0.068,-0.186l0.068,-0.188l0.066,-0.192l0.065,-0.195l0.064,-0.198l0.062,-0.2l0.061,-0.204l0.06,-0.206l0.059,-0.209l0.058,-0.212l0.056,-0.214l0.054,-0.218l0.054,-0.22l0.052,-0.223l0.05,-0.225l0.049,-0.228l0.048,-0.231l0.046,-0.234l0.045,-0.236l0.044,-0.239l0.041,-0.241l0.041,-0.244l0.038,-0.246l0.038,-0.249l0.035,-0.251l0.034,-0.254l0.033,-0.257l0.031,-0.258l0.029,-0.262l0.028,-0.263l0.026,-0.266l0.024,-0.269l0.023,-0.271l0.021,-0.273l0.02,-0.275l0.017,-0.278l0.016,-0.28l0.015,-0.282l0.012,-0.285l0.011,-0.286l0.009,-0.289l0.008,-0.292l0.005,-0.293l0.004,-0.295l0.002,-0.298l0,-0.3l-0.001,-0.301l-0.003,-0.304l-0.006,-0.306l-0.007,-0.308l-0.008,-0.31l-0.011,-0.312l-0.012,-0.314l-0.015,-0.316l-0.016,-0.318l-0.018,-0.32l-0.02,-0.322l-0.022,-0.324l-0.024,-0.325l-0.025,-0.328l-0.028,-0.329l-0.03,-0.332l-0.031,-0.333l-0.033,-0.334l-0.036,-0.337l-0.037,-0.338l-0.039,-0.341l-0.042,-0.341l-0.043,-0.344l-0.045,-0.345l-0.047,-0.347l-0.049,-0.349l-0.051,-0.351l-0.054,-0.352l-0.055,-0.353l-0.057,-0.355l-0.059,-0.357l-0.062,-0.359l-0.063,-0.36l-0.065,-0.361l-0.068,-0.363l-0.069,-0.365l-0.072,-0.367l-0.058,-0.289l-0.059,-0.29l-0.061,-0.291l-0.062,-0.292l-0.063,-0.293l-0.065,-0.294l-0.066,-0.295l-0.068,-0.296l-0.069,-0.297l-0.071,-0.298l-0.072,-0.299l-0.073,-0.299l-0.075,-0.301l-0.076,-0.302l-0.078,-0.302l-0.079,-0.303l-0.08,-0.305l-0.081,-0.305l-0.083,-0.306l-0.085,-0.306l-0.085,-0.308l-0.087,-0.309l-0.089,-0.309l-0.09,-0.31l-0.091,-0.311l-0.092,-0.312l-0.094,-0.312l-0.095,-0.313l-0.096,-0.315l-0.098,-0.314l-0.099,-0.316l-0.1,-0.316l-0.102,-0.317l-0.102,-0.318l-0.105,-0.319l-0.105,-0.319l-0.107,-0.32l-0.108,-0.32l-0.109,-0.322l-0.111,-0.322l-0.111,-0.322l-0.113,-0.323l-0.115,-0.324l-0.115,-0.325l-0.117,-0.325l-0.118,-0.326l-0.119,-0.326l-0.12,-0.327l-0.122,-0.328l-0.123,-0.328l-0.124,-0.329l-0.125,-0.329l-0.127,-0.33l-0.127,-0.331l-0.129,-0.331l-0.13,-0.331l-0.131,-0.332l-0.133,-0.333l-0.133,-0.333l-0.135,-0.334l-0.136,-0.334l-0.137,-0.335l-0.138,-0.335l-0.139,-0.335l-0.141,-0.336l-0.141,-0.337l-0.143,-0.336l-0.144,-0.338l-0.145,-0.338l-0.146,-0.338l-0.147,-0.338l-0.148,-0.339l-0.15,-0.34l-0.15,-0.339l-0.152,-0.341l-0.152,-0.34l-0.154,-0.341l-0.154,-0.341l-0.156,-0.342l-0.157,-0.342l-0.158,-0.342l-0.159,-0.343l-0.16,-0.343l-0.161,-0.343l-0.162,-0.343l-0.163,-0.344l-0.164,-0.344l-0.165,-0.344l-0.167,-0.345l-0.167,-0.345l-0.168,-0.345l-0.169,-0.345l-0.17,-0.346l-0.171,-0.346l-0.172,-0.346l-0.173,-0.346l-0.174,-0.346l-0.175,-0.347l-0.176,-0.347l-0.177,-0.347l-0.178,-0.347l-0.179,-0.347l-0.18,-0.348l-0.18,-0.347l-0.182,-0.348l-0.182,-0.348l-0.184,-0.348l-0.184,-0.348l-0.185,-0.348l-0.186,-0.348l-0.188,-0.349l-0.187,-0.348l-0.189,-0.349l-0.189,-0.347l-0.383,-0.699l-0.385,-0.698l-0.389,-0.697l-0.393,-0.698l-0.395,-0.698l-0.399,-0.697l-0.403,-0.699l-0.196,-0.338l-0.197,-0.339l-0.198,-0.337l-0.198,-0.338l-0.199,-0.336l-0.199,-0.336l-0.2,-0.335l-0.2,-0.334l-0.201,-0.334l-0.201,-0.333l-0.201,-0.332l-0.202,-0.331l-0.203,-0.331l-0.202,-0.33l-0.204,-0.329l-0.203,-0.329l-0.204,-0.327l-0.205,-0.327l-0.205,-0.326l-0.205,-0.325l-0.206,-0.325l-0.206,-0.323l-0.207,-0.323l-0.207,-0.322l-0.207,-0.321l-0.208,-0.32l-0.208,-0.32l-0.208,-0.318l-0.209,-0.318l-0.209,-0.317l-0.21,-0.316l-0.209,-0.315l-0.211,-0.314l-0.21,-0.313l-0.211,-0.312l-0.211,-0.312l-0.212,-0.31l-0.211,-0.309l-0.213,-0.309l-0.212,-0.308l-0.213,-0.306l-0.213,-0.306l-0.213,-0.305l-0.214,-0.303l-0.214,-0.303l-0.214,-0.302l-0.214,-0.3l-0.215,-0.3l-0.215,-0.299l-0.215,-0.297l-0.215,-0.297l-0.216,-0.296l-0.216,-0.294l-0.216,-0.294l-0.216,-0.292l-0.217,-0.291l-0.217,-0.29l-0.217,-0.29l-0.217,-0.288l-0.218,-0.287l-0.217,-0.285l-0.218,-0.285l-0.218,-0.284l-0.218,-0.282l-0.219,-0.281l-0.218,-0.281l-0.219,-0.279l-0.219,-0.278l-0.219,-0.276l-0.219,-0.276l-0.219,-0.274l-0.22,-0.273l-0.219,-0.272l-0.22,-0.271l-0.22,-0.269l-0.22,-0.268l-0.22,-0.267l-0.22,-0.266l-0.22,-0.265l-0.22,-0.263l-0.221,-0.262l-0.22,-0.261l-0.221,-0.259l-0.22,-0.259l-0.221,-0.256l-0.221,-0.256l-0.221,-0.254l-0.221,-0.253l-0.22,-0.252l-0.221,-0.25l-0.221,-0.249l-0.221,-0.248l-0.221,-0.246l-0.221,-0.245l-0.222,-0.244l-0.221,-0.242l-0.221,-0.241l-0.221,-0.239l-0.221,-0.238l-0.221,-0.237l-0.221,-0.235l-0.221,-0.234l-0.22,-0.232l-0.221,-0.231l-0.221,-0.229l-0.221,-0.228l-0.22,-0.227l-0.221,-0.225l-0.221,-0.223l-0.22,-0.223l-0.22,-0.22l-0.221,-0.219l-0.22,-0.218l-0.22,-0.216l-0.22,-0.215l-0.22,-0.213l-0.219,-0.211l-0.22,-0.21l-0.219,-0.209l-0.22,-0.207l-0.219,-0.205l-0.219,-0.204l-0.218,-0.202l-0.219,-0.2l-0.218,-0.199l-0.219,-0.198l-0.218,-0.196l-0.217,-0.193l-0.29,-0.256l-0.288,-0.253l-0.289,-0.25l-0.287,-0.248l-0.288,-0.245l-0.287,-0.242l-0.287,-0.24l-0.286,-0.238l-0.286,-0.234l-0.285,-0.232l-0.285,-0.23l-0.284,-0.227l-0.284,-0.224l-0.283,-0.222l-0.283,-0.219l-0.282,-0.216l-0.282,-0.214l-0.281,-0.211l-0.28,-0.208l-0.28,-0.206l-0.279,-0.203l-0.278,-0.201l-0.278,-0.198l-0.277,-0.195l-0.276,-0.193l-0.276,-0.19l-0.274,-0.187l-0.274,-0.185l-0.274,-0.182l-0.272,-0.179l-0.271,-0.177l-0.271,-0.174l-0.27,-0.171l-0.269,-0.169l-0.268,-0.166l-0.267,-0.163l-0.266,-0.161l-0.265,-0.158l-0.264,-0.155l-0.263,-0.153l-0.262,-0.15l-0.261,-0.147l-0.26,-0.145l-0.258,-0.141l-0.258,-0.139l-0.257,-0.137l-0.255,-0.134l-0.254,-0.131l-0.253,-0.128l-0.252,-0.126l-0.251,-0.123l-0.249,-0.12l-0.248,-0.117l-0.247,-0.115l-0.245,-0.112l-0.244,-0.11l-0.243,-0.106l-0.241,-0.104l-0.24,-0.101l-0.238,-0.099l-0.237,-0.096l-0.235,-0.093l-0.234,-0.091l-0.232,-0.087l-0.231,-0.085l-0.229,-0.083l-0.228,-0.079l-0.226,-0.077l-0.224,-0.075l-0.223,-0.071l-0.221,-0.069l-0.219,-0.067l-0.217,-0.063l-0.215,-0.061l-0.214,-0.059l-0.212,-0.055l-0.21,-0.053l-0.208,-0.051l-0.206,-0.048l-0.204,-0.045l-0.203,-0.043l-0.2,-0.04l-0.198,-0.037l-0.196,-0.035l-0.194,-0.032l-0.192,-0.03l-0.19,-0.027l-0.187,-0.025l-0.186,-0.023l-0.183,-0.019l-0.181,-0.018l-0.179,-0.015l-0.176,-0.012l-0.174,-0.011l-0.172,-0.008l-0.169,-0.005l-0.167,-0.003l-0.165,-0.001l-0.162,0.001Z" style="fill:#fff;"/></g></svg>