<?xml version="1.0" encoding="UTF-8" standalone="no"?><!DOCTYPE svg PUBLIC "-//W3C//DTD SVG 1.1//EN" "http://www.w3.org/Graphics/SVG/1.1/DTD/svg11.dtd"><svg width="100%" height="100%" viewBox="0 0 127 150" version="1.1" xmlns="http://www.w3.org/2000/svg" xmlns:xlink="http://www.w3.org/1999/xlink" xml:space="preserve" style="fill-rule:evenodd;clip-rule:evenodd;stroke-linejoin:round;stroke-miterlimit:1.41421;"><g><g opacity="0.75"><path d="M107.044,136.663l0,-40.185l13.337,0l0,53.522l-120.381,0l0,-53.522l13.337,0l0,40.185l93.707,0Z" style="fill:#fff;fill-rule:nonzero;"/><path d="M28.06,92.667l65.473,13.684l2.772,-13.164l-65.474,-13.684l-2.771,13.164Zm8.661,-31.177l60.623,28.233l5.543,-12.125l-60.624,-28.406l-5.542,12.298Zm16.801,-29.793l51.443,42.783l8.488,-10.219l-51.444,-42.783l-8.487,10.219Zm33.256,-31.697l-10.739,7.968l39.839,53.695l10.739,-7.968l-39.839,-53.695Zm-60.104,123.152l66.859,0l0,-13.337l-66.859,0l0,13.337Z" style="fill:#fff;fill-rule:nonzero;"/></g></g></svg>