<?xml version="1.0" encoding="UTF-8" standalone="no"?><!DOCTYPE svg PUBLIC "-//W3C//DTD SVG 1.1//EN" "http://www.w3.org/Graphics/SVG/1.1/DTD/svg11.dtd"><svg width="100%" height="100%" viewBox="0 0 150 150" version="1.1" xmlns="http://www.w3.org/2000/svg" xmlns:xlink="http://www.w3.org/1999/xlink" xml:space="preserve" style="fill-rule:evenodd;clip-rule:evenodd;stroke-linejoin:round;stroke-miterlimit:1.41421;"><g id="stackoverflow"><path d="M118.736,136.663l0,-40.185l13.337,0l0,53.522l-120.381,0l0,-53.522l13.337,0l0,40.185l93.707,0Z" style="fill:#fff;fill-rule:nonzero;"/><path d="M39.752,92.667l65.473,13.684l2.772,-13.164l-65.474,-13.684l-2.771,13.164Zm8.66,-31.177l60.624,28.233l5.543,-12.125l-60.624,-28.406l-5.543,12.298Zm16.802,-29.793l51.443,42.783l8.487,-10.219l-51.443,-42.783l-8.487,10.219Zm33.256,-31.697l-10.739,7.968l39.838,53.695l10.739,-7.968l-39.838,-53.695Zm-60.104,123.152l66.859,0l0,-13.337l-66.859,0l0,13.337Z" style="fill:#fff;fill-rule:nonzero;"/></g><rect x="0" y="0" width="150" height="150" style="fill:none;"/></svg>