<?xml version="1.0" encoding="UTF-8" standalone="no"?><!DOCTYPE svg PUBLIC "-//W3C//DTD SVG 1.1//EN" "http://www.w3.org/Graphics/SVG/1.1/DTD/svg11.dtd"><svg width="100%" height="100%" viewBox="0 0 150 122" version="1.1" xmlns="http://www.w3.org/2000/svg" xmlns:xlink="http://www.w3.org/1999/xlink" xml:space="preserve" style="fill-rule:evenodd;clip-rule:evenodd;stroke-linejoin:round;stroke-miterlimit:1.41421;"><path d="M150,14.43c-5.52,2.448 -11.453,4.102 -17.675,4.846c6.353,-3.81 11.238,-9.838 13.531,-17.025c-5.939,3.526 -12.525,6.091 -19.535,7.47c-5.619,-5.986 -13.621,-9.721 -22.47,-9.721c-16.995,0 -30.774,13.782 -30.774,30.773c0,2.419 0.272,4.762 0.794,7.011c-25.572,-1.278 -48.245,-13.528 -63.43,-32.156c-2.645,4.553 -4.162,9.838 -4.162,15.478c0,10.673 5.431,20.099 13.683,25.614c-5.04,-0.159 -9.784,-1.55 -13.934,-3.852l0,0.388c0,14.908 10.611,27.349 24.683,30.176c-2.58,0.699 -5.306,1.084 -8.109,1.084c-1.98,0 -3.912,-0.197 -5.787,-0.558c3.915,12.226 15.278,21.121 28.743,21.377c-10.527,8.253 -23.795,13.173 -38.222,13.173c-2.481,0 -4.93,-0.152 -7.336,-0.433c13.618,8.724 29.794,13.821 47.183,13.821c56.599,0 87.551,-46.884 87.551,-87.555c0,-1.328 -0.033,-2.657 -0.083,-3.986c6.001,-4.332 11.214,-9.751 15.349,-15.925Z" style="fill:#fefefe;fill-opacity:0.75;fill-rule:nonzero;"/></svg>